<svg xmlns="http://www.w3.org/2000/svg" xmlns:xlink="http://www.w3.org/1999/xlink" width="500" zoomAndPan="magnify" viewBox="0 0 375 374.999991" height="500" preserveAspectRatio="xMidYMid meet" version="1.0"><defs><g/><clipPath id="d502ef3e1e"><path d="M 60 99 L 315 99 L 315 205.09375 L 60 205.09375 Z M 60 99 " clip-rule="nonzero"/></clipPath><clipPath id="e3b0ee5cd8"><path d="M 263.652344 179.480469 L 315 179.480469 L 315 231 L 263.652344 231 Z M 263.652344 179.480469 " clip-rule="nonzero"/></clipPath><clipPath id="5b608ee0b0"><path d="M 60 177.1875 L 108.363281 177.1875 L 108.363281 231 L 60 231 Z M 60 177.1875 " clip-rule="nonzero"/></clipPath></defs><g fill="#fffafa" fill-opacity="1"><g transform="translate(111.105063, 224.871607)"><g><path d="M 0 -18.089844 L 0 0 L 9.019531 0 C 11.625 0 14.0625 -1.761719 14.0625 -4.65625 C 14.0625 -7.117188 12.398438 -8.78125 10.324219 -9.191406 C 12.203125 -9.746094 13.675781 -11.265625 13.675781 -13.507812 C 13.675781 -16.425781 11.3125 -18.089844 8.753906 -18.089844 Z M 7.765625 -8.972656 C 9.9375 -8.972656 12.058594 -7.210938 12.058594 -4.65625 C 12.058594 -2.097656 10.660156 -0.386719 7.789062 -0.386719 L 2.003906 -0.386719 L 2.003906 -8.972656 Z M 2.003906 -17.703125 L 7.355469 -17.703125 C 9.550781 -17.703125 11.675781 -16.0625 11.675781 -13.507812 C 11.675781 -11 10.273438 -9.335938 7.378906 -9.335938 L 2.003906 -9.335938 Z M 2.003906 -17.703125 "/></g></g></g><g fill="#fffafa" fill-opacity="1"><g transform="translate(127.311612, 224.871607)"><g><path d="M 0 0 L 12.902344 0 L 12.902344 -2.003906 C 9.671875 -1.300781 7.234375 -0.386719 2.003906 -0.363281 L 2.003906 -18.089844 L 0 -18.089844 Z M 0 0 "/></g></g></g><g fill="#fffafa" fill-opacity="1"><g transform="translate(141.902313, 224.871607)"><g><path d="M 8.007812 -18.089844 L 5.789062 -18.089844 C 5.449219 -15.363281 4.339844 -13.554688 2.871094 -11.359375 C 1.664062 -9.550781 0.289062 -7.5 0.046875 -5.28125 C -0.289062 -2.242188 1.664062 0 4.847656 0 C 8.78125 0 10.925781 -3.257812 10.925781 -6.632812 L 13.917969 0 L 16.113281 0 Z M 10.371094 -7.863281 C 11.410156 -5.570312 8.875 -2.148438 6.488281 -1.738281 C 3.691406 -1.230469 1.808594 -2.917969 1.566406 -5.304688 C 1.328125 -7.597656 2.773438 -9.984375 3.859375 -11.914062 C 4.871094 -13.699219 5.714844 -15.4375 6.078125 -17.4375 Z M 10.371094 -7.863281 "/></g></g></g><g fill="#fffafa" fill-opacity="1"><g transform="translate(159.387076, 224.871607)"><g><path d="M 14.0625 0 L 14.0625 -18.089844 L 12.058594 -18.089844 C 12.566406 -14.0625 13.242188 -10.804688 13.53125 -5.765625 C 10.515625 -10.300781 6.269531 -14.398438 2.675781 -18.089844 L 0 -18.089844 L 0 0 L 2.003906 0 C 1.328125 -5.28125 0.410156 -9.261719 0.363281 -17.703125 C 4.148438 -13.894531 13.578125 -4.679688 13.699219 0 Z M 14.0625 0 "/></g></g></g><g fill="#fffafa" fill-opacity="1"><g transform="translate(175.593626, 224.871607)"><g><path d="M 0 -18.089844 L 0 0 L 2.003906 0 L 2.003906 -7.089844 L 4.125 -9.019531 C 5.523438 -10.300781 6.945312 -10.179688 7.984375 -8.5625 C 9.164062 -6.707031 10.011719 -3.160156 10.878906 -1.207031 C 11.238281 -0.457031 11.335938 0 12.324219 0 L 14.0625 0 C 13.796875 -0.144531 13.53125 -0.507812 13.3125 -0.84375 C 11.890625 -3.351562 11.191406 -7.308594 9.695312 -9.308594 C 9.214844 -9.984375 8.5625 -10.445312 7.550781 -10.539062 C 6.824219 -10.636719 6.078125 -10.46875 5.402344 -10.203125 L 14.0625 -18.089844 L 12.058594 -18.089844 C 8.828125 -14.351562 5.523438 -11.023438 2.003906 -7.644531 L 2.003906 -18.089844 Z M 0 -18.089844 "/></g></g></g><g fill="#fffafa" fill-opacity="1"><g transform="translate(191.028431, 224.871607)"><g/></g></g><g fill="#fffafa" fill-opacity="1"><g transform="translate(196.309902, 224.871607)"><g><path d="M 9.046875 -18.089844 C 4.050781 -18.089844 0 -14.039062 0 -9.046875 C 0 -4.027344 4.078125 0 9.046875 0 C 11.578125 0 13.894531 -0.699219 15.535156 -2.003906 L 15.535156 -4.027344 C 13.289062 -0.964844 9.191406 0.84375 5.765625 -1.375 C 3.546875 -2.820312 2.003906 -5.714844 2.003906 -9.046875 C 2.003906 -13.820312 5.160156 -17.703125 9.046875 -17.703125 C 12.058594 -17.703125 14.472656 -15.292969 13.433594 -12.375 C 14.785156 -12.347656 15.535156 -13.167969 15.535156 -14.253906 C 15.535156 -15.652344 14.039062 -16.761719 12.878906 -17.316406 C 11.699219 -17.847656 10.347656 -18.089844 9.046875 -18.089844 Z M 9.046875 -18.089844 "/></g></g></g><g fill="#fffafa" fill-opacity="1"><g transform="translate(214.011714, 224.871607)"><g><path d="M 8.007812 -18.089844 L 5.789062 -18.089844 C 5.449219 -15.363281 4.339844 -13.554688 2.871094 -11.359375 C 1.664062 -9.550781 0.289062 -7.5 0.046875 -5.28125 C -0.289062 -2.242188 1.664062 0 4.847656 0 C 8.78125 0 10.925781 -3.257812 10.925781 -6.632812 L 13.917969 0 L 16.113281 0 Z M 10.371094 -7.863281 C 11.410156 -5.570312 8.875 -2.148438 6.488281 -1.738281 C 3.691406 -1.230469 1.808594 -2.917969 1.566406 -5.304688 C 1.328125 -7.597656 2.773438 -9.984375 3.859375 -11.914062 C 4.871094 -13.699219 5.714844 -15.4375 6.078125 -17.4375 Z M 10.371094 -7.863281 "/></g></g></g><g fill="#fffafa" fill-opacity="1"><g transform="translate(231.496477, 224.871607)"><g><path d="M 0 -18.089844 L 0 0 L 2.003906 0 L 2.003906 -17.703125 L 7.355469 -17.703125 C 9.550781 -17.703125 11.648438 -15.941406 11.648438 -13.410156 C 11.648438 -10.972656 10.394531 -9.285156 7.742188 -9.140625 C 6.152344 -9.046875 4.921875 -9.164062 3.59375 -8.007812 L 3.785156 -7.789062 C 5.136719 -8.898438 6.367188 -8.683594 7.355469 -7.164062 C 8.804688 -4.894531 9.648438 -2.847656 10.878906 -0.601562 C 11.09375 -0.21875 11.359375 0 12.035156 0 L 13.894531 0 C 13.507812 -0.242188 12.953125 -1.0625 12.734375 -1.421875 C 11.601562 -3.257812 10.636719 -5.933594 9.164062 -7.910156 C 8.925781 -8.273438 8.609375 -8.5625 8.199219 -8.753906 C 11.070312 -8.753906 13.675781 -10.25 13.675781 -13.410156 C 13.675781 -16.328125 11.3125 -18.089844 8.730469 -18.089844 Z M 0 -18.089844 "/></g></g></g><g fill="#fffafa" fill-opacity="1"><g transform="translate(247.075982, 224.871607)"><g><path d="M 14.0625 -18.089844 L 0 -18.089844 L 0 -16.0625 C 1.808594 -16.738281 3.183594 -17.632812 6.03125 -17.703125 L 6.03125 0 L 8.03125 0 L 8.03125 -17.703125 C 10.878906 -17.632812 12.253906 -16.738281 14.0625 -16.0625 Z M 14.0625 -18.089844 "/></g></g></g><g clip-path="url(#d502ef3e1e)"><path fill="#fffafa" d="M 310.558594 214.734375 C 306.316406 208.398438 297.253906 204.085938 292.128906 199.613281 C 286.148438 198.261719 280.980469 195.265625 275.796875 192.890625 C 270.320312 190.382812 264.914062 188.335938 259.460938 186.171875 C 242.898438 179.589844 227.113281 172.140625 215.90625 160.546875 C 212.027344 156.535156 208.652344 151.601562 206.273438 147.105469 C 204.832031 144.378906 203.71875 139.507812 201.664062 138.285156 C 198.171875 136.207031 191.734375 138.074219 188.261719 136.605469 C 191.511719 124.988281 178.808594 120.8125 179.46875 111.402344 C 180.109375 102.3125 190.628906 102.515625 194.964844 107.625 C 196.375 109.285156 197.222656 113.773438 201.246094 112.242188 C 202.636719 109.863281 199.757812 107.238281 198.316406 105.523438 C 196.515625 103.382812 194.332031 101.230469 191.613281 100.484375 C 184.640625 98.5625 176.441406 102.40625 175.699219 110.5625 C 174.605469 122.574219 186.445312 123.207031 184.914062 136.605469 C 179.644531 137.980469 173.21875 136.308594 170.253906 138.285156 C 168.433594 139.5 165.738281 147.085938 163.972656 150.046875 C 161.621094 153.992188 158.464844 158.332031 156.015625 160.96875 C 143.042969 174.914062 122.957031 180.429688 104.082031 188.691406 C 97.320312 191.652344 90.457031 195.179688 83.558594 198.773438 C 74.257812 203.617188 63.976562 208.332031 60.945312 217.675781 C 60.128906 220.183594 58.851562 226.410156 62.199219 229.4375 C 67.023438 230.75 71.550781 223.902344 76.859375 222.714844 C 79.484375 222.125 84.289062 222.714844 88.585938 222.714844 L 103.242188 222.714844 C 149.476562 222.714844 213.574219 223.132812 269.511719 223.132812 C 279.085938 223.132812 289.953125 221.996094 297.15625 223.554688 C 302.410156 224.691406 305.917969 231.335938 312.234375 230.695312 C 316.0625 225.457031 313.21875 218.707031 310.554688 214.734375 Z M 197.894531 108.882812 C 195.527344 105.9375 193.542969 102.605469 188.679688 102.164062 C 193.242188 101.234375 196.371094 105.371094 197.894531 108.882812 Z M 184.910156 101.742188 C 185.785156 101.507812 188.113281 101.546875 188.261719 101.742188 C 188.675781 102.292969 186.128906 101.992188 185.75 102.164062 C 184.230469 102.847656 179.96875 104.761719 178.628906 106.785156 C 180.039062 103.957031 183.246094 102.191406 184.910156 101.742188 Z M 177.792969 107.625 C 179.480469 107.789062 177.480469 110.738281 177.375 111.824219 C 179.683594 120.832031 187.886719 125.746094 187.007812 136.605469 C 184.945312 134.761719 186.175781 133.390625 185.75 131.144531 C 184.148438 122.714844 174.425781 118.65625 177.792969 107.625 Z M 201.246094 139.546875 C 206.320312 149.445312 210.585938 157.976562 218.417969 165.167969 C 230.785156 176.523438 252.125 183.660156 269.515625 191.210938 C 277.53125 194.691406 283.246094 197.792969 291.292969 200.871094 C 298.417969 206.328125 307.363281 209.957031 310.140625 219.773438 C 291.941406 192.9375 242.992188 189.828125 218.417969 168.527344 C 210.390625 161.570312 205.570312 153.175781 200.410156 142.488281 C 193.4375 140.082031 182.320312 138.464844 174.863281 141.226562 C 170.269531 142.925781 170.265625 147.394531 167.324219 150.46875 C 165.628906 149.835938 168.554688 147.082031 169 145.847656 C 167.699219 134.359375 191.304688 137.589844 201.246094 139.546875 Z M 71.832031 206.332031 C 100.652344 186.433594 148.34375 181.859375 165.648438 149.628906 C 166.988281 151.394531 164.515625 153.265625 163.554688 155.085938 C 165.449219 154.75 165.691406 152.753906 166.484375 151.308594 C 158.757812 169.933594 140.117188 177.300781 119.996094 185.75 C 110.753906 189.632812 101.28125 193.796875 91.515625 198.351562 C 80.292969 203.585938 67.59375 208.894531 63.039062 220.191406 C 62.820312 214.117188 67.6875 209.195312 71.832031 206.332031 Z M 69.320312 224.8125 C 69.082031 225.5625 68.15625 224.875 68.902344 224.8125 C 92.699219 211.578125 115.910156 197.753906 140.101562 184.910156 C 116.898438 198.605469 93.230469 211.832031 69.320312 224.8125 Z M 185.75 160.96875 C 189.664062 161.925781 191.167969 162.445312 196.519531 165.988281 C 200.621094 168.695312 203.929688 170.707031 207.527344 172.730469 C 233.585938 187.363281 261.355469 202.214844 286.683594 218.09375 C 264.578125 217.347656 236.71875 218.035156 213.449219 218.148438 L 199.925781 218.039062 C 168.023438 217.199219 129.359375 217.503906 86.488281 217.253906 C 119 197.914062 153.070312 180.140625 185.746094 160.96875 Z M 140.519531 184.910156 C 143.984375 182.507812 147.660156 180.3125 151.828125 178.609375 C 150.410156 179.742188 144.101562 183.15625 140.519531 184.910156 Z M 152.664062 178.1875 C 155.902344 175.695312 159.679688 173.742188 163.554688 171.886719 C 160.304688 174.371094 156.464844 176.261719 152.664062 178.1875 Z M 82.722656 221.03125 C 84.679688 221.257812 90.96875 219.414062 93.191406 221.453125 C 90.515625 220.964844 84.269531 222.109375 82.722656 221.03125 Z M 93.609375 220.613281 C 99.171875 220.894531 101.644531 220.800781 106.175781 221.03125 C 103.078125 221.476562 96.019531 222.261719 93.609375 220.613281 Z M 107.011719 221.03125 L 109.527344 221.03125 C 140.917969 220.757812 174.472656 221.605469 206.691406 220.613281 C 174.429688 220.402344 129.667969 220.773438 82.722656 219.773438 C 85.824219 217.59375 94.675781 217.914062 101.570312 218.09375 C 121.550781 218.617188 150.183594 218.75 177.777344 218.464844 L 178.03125 218.582031 L 228.542969 219 L 228.46875 218.871094 C 242.765625 219.09375 256.785156 219.0625 269.09375 218.933594 C 276.253906 218.859375 283.910156 218 290.453125 220.191406 C 259.179688 221.066406 234.699219 220.070312 207.109375 220.613281 C 237.484375 221.714844 269.667969 220.519531 292.546875 221.453125 C 223.585938 222.101562 166.640625 222.222656 107.011719 221.03125 Z M 310.976562 228.59375 C 276.742188 209.300781 242.871094 189.648438 208.785156 170.207031 L 205.855469 170.207031 C 200.046875 165.953125 193.085938 162.851562 186.589844 159.289062 C 179.566406 162.746094 173.125 166.785156 166.484375 170.628906 C 156.230469 173.066406 146.445312 180.238281 137.585938 185.332031 C 112.617188 199.683594 87.101562 213.125 62.199219 226.914062 C 66.140625 208.527344 86.53125 200.640625 102.824219 193.730469 C 116.09375 188.105469 129.621094 183.207031 140.9375 177.351562 C 141.882812 178.328125 138.445312 178.46875 138.425781 179.871094 C 148.929688 174.027344 160.148438 165.035156 167.324219 152.566406 C 169.234375 149.246094 172.027344 142.363281 175.28125 142.066406 C 180.042969 141.632812 182.246094 147.316406 187.007812 147.945312 C 186.515625 146.199219 184.328125 146.15625 183.238281 145.007812 C 185.691406 144.796875 188.429688 147.914062 191.195312 148.789062 C 188.976562 145.832031 185.042969 144.59375 181.5625 142.90625 C 181.273438 144.035156 182.429688 143.71875 182.820312 144.167969 C 181.417969 144.855469 179.683594 142.28125 177.792969 142.066406 C 184.769531 139.964844 194.355469 140.4375 199.992188 143.328125 C 203.4375 150.550781 206.664062 157.070312 211.296875 162.648438 C 230.421875 185.664062 269.59375 188.386719 293.386719 206.753906 L 295.480469 206.753906 C 300.417969 211.457031 306.585938 214.9375 309.300781 221.875 C 307.496094 221.582031 306.730469 220.253906 305.113281 219.773438 C 307.011719 222.667969 312.472656 223.625 310.976562 228.59375 Z M 310.976562 228.59375 " fill-opacity="1" fill-rule="nonzero"/></g><g clip-path="url(#e3b0ee5cd8)"><path fill="#fffafa" d="M 310.558594 214.734375 C 306.316406 208.398438 297.253906 204.085938 292.128906 199.613281 C 286.148438 198.261719 280.980469 195.265625 275.796875 192.890625 C 270.320312 190.382812 264.914062 188.335938 259.460938 186.171875 C 242.898438 179.589844 227.113281 172.140625 215.90625 160.546875 C 212.027344 156.535156 208.652344 151.601562 206.273438 147.105469 C 204.832031 144.378906 203.71875 139.507812 201.664062 138.285156 C 198.171875 136.207031 191.734375 138.074219 188.261719 136.605469 C 191.511719 124.988281 178.808594 120.8125 179.46875 111.402344 C 180.109375 102.3125 190.628906 102.515625 194.964844 107.625 C 196.375 109.285156 197.222656 113.773438 201.246094 112.242188 C 202.636719 109.863281 199.757812 107.238281 198.316406 105.523438 C 196.515625 103.382812 194.332031 101.230469 191.613281 100.484375 C 184.640625 98.566406 176.441406 102.40625 175.699219 110.5625 C 174.605469 122.574219 186.445312 123.207031 184.914062 136.605469 C 179.644531 137.980469 173.21875 136.308594 170.253906 138.285156 C 168.433594 139.5 165.738281 147.085938 163.972656 150.046875 C 161.621094 153.992188 158.464844 158.332031 156.015625 160.96875 C 143.042969 174.914062 122.957031 180.429688 104.082031 188.691406 C 97.320312 191.652344 90.457031 195.179688 83.558594 198.773438 C 74.257812 203.617188 63.976562 208.332031 60.945312 217.675781 C 60.128906 220.183594 58.851562 226.410156 62.199219 229.4375 C 67.023438 230.75 71.550781 223.902344 76.859375 222.714844 C 79.480469 222.128906 84.289062 222.714844 88.585938 222.714844 L 103.242188 222.714844 C 149.476562 222.714844 213.574219 223.132812 269.511719 223.132812 C 279.085938 223.132812 289.953125 221.996094 297.15625 223.554688 C 302.410156 224.691406 305.917969 231.335938 312.234375 230.695312 C 316.0625 225.457031 313.21875 218.707031 310.554688 214.734375 Z M 197.894531 108.882812 C 195.527344 105.9375 193.542969 102.605469 188.679688 102.164062 C 193.242188 101.234375 196.371094 105.371094 197.894531 108.882812 Z M 184.910156 101.742188 C 185.785156 101.507812 188.113281 101.546875 188.261719 101.742188 C 188.675781 102.292969 186.128906 101.992188 185.75 102.164062 C 184.230469 102.847656 179.96875 104.761719 178.628906 106.785156 C 180.039062 103.957031 183.246094 102.191406 184.910156 101.742188 Z M 177.792969 107.625 C 179.480469 107.789062 177.480469 110.738281 177.375 111.824219 C 179.683594 120.832031 187.886719 125.746094 187.007812 136.605469 C 184.945312 134.761719 186.175781 133.390625 185.75 131.144531 C 184.148438 122.714844 174.425781 118.65625 177.792969 107.625 Z M 201.246094 139.546875 C 206.320312 149.445312 210.585938 157.976562 218.417969 165.167969 C 230.785156 176.523438 252.125 183.660156 269.515625 191.210938 C 277.53125 194.691406 283.246094 197.792969 291.292969 200.871094 C 298.417969 206.328125 307.359375 209.957031 310.140625 219.773438 C 291.941406 192.9375 242.992188 189.828125 218.417969 168.527344 C 210.390625 161.570312 205.570312 153.175781 200.410156 142.488281 C 193.4375 140.082031 182.320312 138.464844 174.863281 141.226562 C 170.269531 142.925781 170.265625 147.394531 167.324219 150.46875 C 165.628906 149.835938 168.554688 147.082031 169 145.847656 C 167.699219 134.359375 191.304688 137.589844 201.246094 139.546875 Z M 71.832031 206.332031 C 100.652344 186.433594 148.34375 181.859375 165.648438 149.628906 C 166.988281 151.394531 164.515625 153.265625 163.554688 155.085938 C 165.449219 154.75 165.691406 152.753906 166.484375 151.308594 C 158.757812 169.933594 140.117188 177.300781 119.996094 185.75 C 110.753906 189.632812 101.28125 193.796875 91.515625 198.351562 C 80.292969 203.585938 67.59375 208.894531 63.039062 220.191406 C 62.820312 214.117188 67.6875 209.195312 71.832031 206.332031 Z M 69.320312 224.8125 C 69.082031 225.5625 68.15625 224.875 68.902344 224.8125 C 92.699219 211.578125 115.910156 197.753906 140.101562 184.910156 C 116.898438 198.605469 93.230469 211.832031 69.320312 224.8125 Z M 185.75 160.96875 C 189.664062 161.925781 191.167969 162.445312 196.519531 165.988281 C 200.621094 168.695312 203.929688 170.707031 207.527344 172.730469 C 233.585938 187.363281 261.355469 202.214844 286.683594 218.09375 C 264.578125 217.347656 236.71875 218.035156 213.449219 218.148438 L 199.925781 218.039062 C 168.023438 217.199219 129.359375 217.503906 86.488281 217.253906 C 119 197.914062 153.070312 180.140625 185.746094 160.96875 Z M 140.519531 184.910156 C 143.984375 182.507812 147.660156 180.3125 151.828125 178.609375 C 150.410156 179.742188 144.101562 183.15625 140.519531 184.910156 Z M 152.664062 178.1875 C 155.902344 175.695312 159.679688 173.742188 163.554688 171.886719 C 160.304688 174.371094 156.464844 176.261719 152.664062 178.1875 Z M 82.722656 221.03125 C 84.679688 221.257812 90.96875 219.414062 93.191406 221.453125 C 90.515625 220.964844 84.269531 222.109375 82.722656 221.03125 Z M 93.609375 220.613281 C 99.171875 220.894531 101.644531 220.800781 106.175781 221.03125 C 103.078125 221.476562 96.019531 222.261719 93.609375 220.613281 Z M 107.011719 221.03125 L 109.527344 221.03125 C 140.917969 220.757812 174.472656 221.605469 206.691406 220.613281 C 174.429688 220.402344 129.667969 220.773438 82.722656 219.773438 C 85.824219 217.59375 94.675781 217.914062 101.570312 218.09375 C 121.550781 218.617188 150.183594 218.75 177.777344 218.464844 L 178.03125 218.582031 L 228.542969 219 L 228.46875 218.871094 C 242.765625 219.09375 256.785156 219.0625 269.09375 218.933594 C 276.253906 218.859375 283.910156 218 290.453125 220.191406 C 259.179688 221.066406 234.699219 220.070312 207.109375 220.613281 C 237.484375 221.714844 269.667969 220.519531 292.546875 221.453125 C 223.585938 222.101562 166.640625 222.222656 107.011719 221.03125 Z M 310.976562 228.59375 C 276.742188 209.300781 242.871094 189.648438 208.785156 170.207031 L 205.855469 170.207031 C 200.046875 165.953125 193.085938 162.851562 186.589844 159.289062 C 179.566406 162.746094 173.125 166.785156 166.484375 170.628906 C 156.230469 173.066406 146.445312 180.238281 137.585938 185.332031 C 112.617188 199.683594 87.097656 213.125 62.199219 226.914062 C 66.140625 208.527344 86.53125 200.640625 102.824219 193.730469 C 116.09375 188.105469 129.621094 183.207031 140.9375 177.351562 C 141.882812 178.328125 138.445312 178.46875 138.425781 179.871094 C 148.929688 174.027344 160.148438 165.035156 167.324219 152.566406 C 169.234375 149.246094 172.027344 142.363281 175.28125 142.066406 C 180.042969 141.632812 182.246094 147.316406 187.007812 147.945312 C 186.515625 146.199219 184.328125 146.15625 183.238281 145.007812 C 185.691406 144.796875 188.429688 147.914062 191.195312 148.789062 C 188.976562 145.832031 185.042969 144.59375 181.5625 142.90625 C 181.273438 144.035156 182.429688 143.71875 182.820312 144.167969 C 181.417969 144.855469 179.683594 142.28125 177.792969 142.066406 C 184.769531 139.964844 194.355469 140.4375 199.992188 143.328125 C 203.4375 150.550781 206.664062 157.070312 211.296875 162.648438 C 230.421875 185.664062 269.59375 188.386719 293.386719 206.753906 L 295.480469 206.753906 C 300.417969 211.457031 306.585938 214.9375 309.300781 221.875 C 307.496094 221.582031 306.730469 220.253906 305.113281 219.773438 C 307.011719 222.667969 312.472656 223.625 310.976562 228.59375 Z M 310.976562 228.59375 " fill-opacity="1" fill-rule="nonzero"/></g><g clip-path="url(#5b608ee0b0)"><path fill="#fffafa" d="M 310.558594 214.734375 C 306.316406 208.398438 297.253906 204.085938 292.128906 199.613281 C 286.148438 198.261719 280.980469 195.265625 275.796875 192.890625 C 270.320312 190.382812 264.914062 188.335938 259.460938 186.171875 C 242.898438 179.589844 227.113281 172.140625 215.90625 160.546875 C 212.027344 156.535156 208.652344 151.601562 206.273438 147.105469 C 204.832031 144.378906 203.71875 139.507812 201.664062 138.285156 C 198.171875 136.207031 191.734375 138.074219 188.261719 136.605469 C 191.511719 124.988281 178.808594 120.8125 179.46875 111.402344 C 180.109375 102.3125 190.628906 102.515625 194.964844 107.625 C 196.375 109.285156 197.222656 113.773438 201.246094 112.242188 C 202.636719 109.863281 199.757812 107.238281 198.316406 105.523438 C 196.515625 103.382812 194.332031 101.230469 191.613281 100.484375 C 184.640625 98.5625 176.441406 102.40625 175.699219 110.5625 C 174.605469 122.574219 186.445312 123.207031 184.914062 136.605469 C 179.644531 137.980469 173.21875 136.308594 170.253906 138.285156 C 168.433594 139.5 165.738281 147.085938 163.972656 150.046875 C 161.621094 153.992188 158.464844 158.332031 156.015625 160.96875 C 143.042969 174.914062 122.957031 180.429688 104.082031 188.691406 C 97.320312 191.648438 90.457031 195.179688 83.558594 198.773438 C 74.257812 203.617188 63.976562 208.332031 60.945312 217.675781 C 60.128906 220.183594 58.851562 226.410156 62.199219 229.4375 C 67.023438 230.75 71.550781 223.902344 76.859375 222.714844 C 79.484375 222.125 84.289062 222.714844 88.585938 222.714844 L 103.242188 222.714844 C 149.476562 222.714844 213.574219 223.132812 269.511719 223.132812 C 279.085938 223.132812 289.953125 221.996094 297.15625 223.554688 C 302.410156 224.691406 305.917969 231.335938 312.234375 230.695312 C 316.0625 225.457031 313.21875 218.707031 310.554688 214.734375 Z M 197.894531 108.882812 C 195.527344 105.9375 193.542969 102.605469 188.679688 102.164062 C 193.242188 101.234375 196.371094 105.371094 197.894531 108.882812 Z M 184.910156 101.742188 C 185.785156 101.507812 188.113281 101.542969 188.261719 101.742188 C 188.675781 102.292969 186.128906 101.992188 185.75 102.164062 C 184.230469 102.847656 179.96875 104.761719 178.628906 106.78125 C 180.039062 103.957031 183.246094 102.191406 184.910156 101.742188 Z M 177.792969 107.625 C 179.480469 107.789062 177.480469 110.738281 177.375 111.824219 C 179.683594 120.832031 187.886719 125.746094 187.007812 136.605469 C 184.945312 134.761719 186.175781 133.390625 185.75 131.144531 C 184.148438 122.714844 174.425781 118.65625 177.792969 107.625 Z M 201.246094 139.546875 C 206.320312 149.445312 210.585938 157.976562 218.417969 165.167969 C 230.785156 176.523438 252.125 183.660156 269.515625 191.210938 C 277.53125 194.691406 283.246094 197.792969 291.292969 200.871094 C 298.417969 206.328125 307.363281 209.957031 310.140625 219.773438 C 291.941406 192.9375 242.992188 189.828125 218.417969 168.527344 C 210.390625 161.570312 205.570312 153.175781 200.410156 142.488281 C 193.4375 140.082031 182.320312 138.464844 174.863281 141.226562 C 170.269531 142.925781 170.265625 147.394531 167.324219 150.46875 C 165.628906 149.835938 168.554688 147.082031 169 145.847656 C 167.699219 134.359375 191.304688 137.589844 201.246094 139.546875 Z M 71.832031 206.332031 C 100.652344 186.433594 148.34375 181.859375 165.648438 149.628906 C 166.988281 151.394531 164.515625 153.265625 163.554688 155.085938 C 165.449219 154.75 165.691406 152.753906 166.484375 151.308594 C 158.757812 169.933594 140.117188 177.300781 119.996094 185.75 C 110.753906 189.632812 101.28125 193.796875 91.515625 198.351562 C 80.292969 203.585938 67.59375 208.894531 63.039062 220.191406 C 62.820312 214.117188 67.6875 209.195312 71.832031 206.332031 Z M 69.320312 224.8125 C 69.082031 225.5625 68.15625 224.875 68.902344 224.8125 C 92.699219 211.578125 115.910156 197.753906 140.101562 184.910156 C 116.898438 198.605469 93.230469 211.832031 69.320312 224.8125 Z M 185.75 160.96875 C 189.664062 161.925781 191.167969 162.445312 196.519531 165.988281 C 200.621094 168.695312 203.929688 170.707031 207.527344 172.726562 C 233.585938 187.363281 261.355469 202.214844 286.683594 218.09375 C 264.578125 217.347656 236.71875 218.035156 213.449219 218.148438 L 199.925781 218.039062 C 168.023438 217.199219 129.359375 217.503906 86.488281 217.253906 C 119 197.914062 153.070312 180.140625 185.746094 160.96875 Z M 140.519531 184.910156 C 143.984375 182.507812 147.660156 180.3125 151.828125 178.609375 C 150.410156 179.742188 144.101562 183.15625 140.519531 184.910156 Z M 152.664062 178.1875 C 155.902344 175.695312 159.679688 173.742188 163.554688 171.886719 C 160.304688 174.371094 156.464844 176.261719 152.664062 178.1875 Z M 82.722656 221.03125 C 84.679688 221.257812 90.96875 219.414062 93.191406 221.453125 C 90.515625 220.964844 84.269531 222.109375 82.722656 221.03125 Z M 93.609375 220.613281 C 99.171875 220.894531 101.644531 220.800781 106.175781 221.03125 C 103.078125 221.476562 96.019531 222.261719 93.609375 220.613281 Z M 107.011719 221.03125 L 109.527344 221.03125 C 140.917969 220.757812 174.472656 221.605469 206.691406 220.613281 C 174.429688 220.402344 129.667969 220.773438 82.722656 219.773438 C 85.824219 217.59375 94.675781 217.914062 101.570312 218.09375 C 121.550781 218.617188 150.183594 218.75 177.777344 218.464844 L 178.03125 218.582031 L 228.542969 219 L 228.46875 218.871094 C 242.765625 219.09375 256.785156 219.0625 269.09375 218.933594 C 276.253906 218.859375 283.910156 218 290.453125 220.191406 C 259.179688 221.066406 234.699219 220.070312 207.109375 220.613281 C 237.484375 221.714844 269.667969 220.519531 292.546875 221.453125 C 223.585938 222.101562 166.640625 222.222656 107.011719 221.03125 Z M 310.976562 228.59375 C 276.742188 209.300781 242.871094 189.648438 208.785156 170.207031 L 205.855469 170.207031 C 200.046875 165.953125 193.085938 162.851562 186.589844 159.289062 C 179.566406 162.746094 173.125 166.785156 166.484375 170.628906 C 156.230469 173.066406 146.445312 180.238281 137.585938 185.332031 C 112.617188 199.683594 87.101562 213.125 62.199219 226.914062 C 66.140625 208.527344 86.53125 200.640625 102.824219 193.730469 C 116.09375 188.105469 129.621094 183.207031 140.9375 177.351562 C 141.882812 178.328125 138.445312 178.46875 138.425781 179.871094 C 148.929688 174.023438 160.148438 165.035156 167.324219 152.566406 C 169.234375 149.246094 172.027344 142.363281 175.28125 142.066406 C 180.042969 141.632812 182.246094 147.316406 187.007812 147.945312 C 186.515625 146.199219 184.328125 146.15625 183.238281 145.007812 C 185.691406 144.796875 188.429688 147.914062 191.195312 148.785156 C 188.976562 145.832031 185.042969 144.59375 181.5625 142.90625 C 181.273438 144.035156 182.429688 143.71875 182.820312 144.167969 C 181.417969 144.855469 179.683594 142.28125 177.792969 142.066406 C 184.769531 139.964844 194.355469 140.4375 199.992188 143.328125 C 203.4375 150.550781 206.664062 157.070312 211.296875 162.648438 C 230.421875 185.664062 269.59375 188.386719 293.386719 206.753906 L 295.480469 206.753906 C 300.417969 211.457031 306.585938 214.9375 309.300781 221.875 C 307.496094 221.582031 306.730469 220.253906 305.113281 219.773438 C 307.011719 222.667969 312.472656 223.625 310.976562 228.59375 Z M 310.976562 228.59375 " fill-opacity="1" fill-rule="nonzero"/></g><path stroke-linecap="butt" transform="matrix(0.000000000000000044, -0.725441, 0.75, 0.000000000000000046, 263.83323, 222.536937)" fill="none" stroke-linejoin="miter" d="M 0.00245525 0.498401 L 6.205581 0.498401 " stroke="#fffafa" stroke-width="1" stroke-opacity="1" stroke-miterlimit="4"/><path stroke-linecap="butt" transform="matrix(0.000000000000000046, -0.756757, 0.75, 0.000000000000000046, 108.35424, 222.53477)" fill="none" stroke-linejoin="miter" d="M -0.000510155 0.501639 L 6.947314 0.501639 " stroke="#fffafa" stroke-width="1" stroke-opacity="1" stroke-miterlimit="4"/><g fill="#fffafa" fill-opacity="1"><g transform="translate(158.478489, 249.5568)"><g><path d="M 1.703125 -6.78125 C 1.515625 -6.84375 1.367188 -6.875 1.265625 -6.875 C 1.109375 -6.875 0.984375 -6.863281 0.890625 -6.84375 C 0.796875 -6.832031 0.742188 -6.832031 0.734375 -6.84375 C 0.722656 -6.863281 0.71875 -6.890625 0.71875 -6.921875 C 0.71875 -6.953125 0.726562 -6.984375 0.75 -7.015625 C 0.769531 -7.046875 0.796875 -7.0625 0.828125 -7.0625 C 1.265625 -7.164062 1.863281 -7.21875 2.625 -7.21875 L 4.828125 -3.609375 L 4.875 -3.609375 L 6.984375 -7.21875 C 7.734375 -7.21875 8.328125 -7.164062 8.765625 -7.0625 C 8.835938 -7.050781 8.875 -7 8.875 -6.90625 C 8.875 -6.851562 8.828125 -6.832031 8.734375 -6.84375 C 8.640625 -6.863281 8.515625 -6.875 8.359375 -6.875 C 8.203125 -6.875 8.035156 -6.835938 7.859375 -6.765625 L 8.703125 -0.765625 C 8.742188 -0.453125 8.835938 -0.257812 8.984375 -0.1875 C 9.023438 -0.175781 9.046875 -0.140625 9.046875 -0.078125 C 9.046875 -0.0234375 9.023438 0 8.984375 0 L 7.53125 0 C 7.488281 0 7.46875 -0.0234375 7.46875 -0.078125 C 7.46875 -0.128906 7.472656 -0.160156 7.484375 -0.171875 C 7.503906 -0.179688 7.523438 -0.191406 7.546875 -0.203125 C 7.617188 -0.234375 7.679688 -0.316406 7.734375 -0.453125 C 7.796875 -0.597656 7.828125 -0.695312 7.828125 -0.75 C 7.828125 -0.800781 7.828125 -0.832031 7.828125 -0.84375 L 7.125 -6.0625 L 7.09375 -6.0625 L 4.921875 -2.265625 C 4.910156 -2.253906 4.859375 -2.25 4.765625 -2.25 C 4.671875 -2.257812 4.617188 -2.265625 4.609375 -2.265625 L 2.34375 -6.0625 L 2.3125 -6.0625 L 1.65625 -0.84375 C 1.644531 -0.75 1.664062 -0.640625 1.71875 -0.515625 C 1.769531 -0.390625 1.8125 -0.304688 1.84375 -0.265625 C 1.882812 -0.234375 1.921875 -0.207031 1.953125 -0.1875 C 1.992188 -0.175781 2.015625 -0.140625 2.015625 -0.078125 C 2.015625 -0.0234375 1.992188 0 1.953125 0 L 0.625 0 C 0.582031 0 0.5625 -0.0234375 0.5625 -0.078125 C 0.5625 -0.128906 0.566406 -0.160156 0.578125 -0.171875 C 0.597656 -0.179688 0.617188 -0.191406 0.640625 -0.203125 C 0.773438 -0.265625 0.863281 -0.453125 0.90625 -0.765625 Z M 1.703125 -6.78125 "/></g></g></g><g fill="#fffafa" fill-opacity="1"><g transform="translate(168.435111, 249.5568)"><g><path d="M 1.421875 -3.5 C 1.234375 -3.382812 1.09375 -3.226562 1 -3.03125 C 0.914062 -2.832031 0.875 -2.582031 0.875 -2.28125 C 0.875 -1.988281 0.957031 -1.691406 1.125 -1.390625 C 1.289062 -1.085938 1.515625 -0.847656 1.796875 -0.671875 C 2.085938 -0.503906 2.375 -0.421875 2.65625 -0.421875 C 2.945312 -0.421875 3.179688 -0.484375 3.359375 -0.609375 C 3.546875 -0.742188 3.6875 -0.910156 3.78125 -1.109375 C 3.875 -1.316406 3.921875 -1.546875 3.921875 -1.796875 C 3.921875 -2.316406 3.753906 -2.757812 3.421875 -3.125 C 3.097656 -3.5 2.65625 -3.6875 2.09375 -3.6875 C 1.84375 -3.6875 1.617188 -3.625 1.421875 -3.5 Z M 0.890625 -0.53125 C 0.691406 -0.71875 0.53125 -0.941406 0.40625 -1.203125 C 0.289062 -1.472656 0.234375 -1.785156 0.234375 -2.140625 C 0.234375 -2.503906 0.328125 -2.851562 0.515625 -3.1875 C 0.703125 -3.53125 0.96875 -3.796875 1.3125 -3.984375 C 1.65625 -4.179688 2.015625 -4.28125 2.390625 -4.28125 C 3.066406 -4.28125 3.601562 -4.066406 4 -3.640625 C 4.40625 -3.210938 4.609375 -2.691406 4.609375 -2.078125 C 4.617188 -1.472656 4.410156 -0.960938 3.984375 -0.546875 C 3.554688 -0.128906 3.019531 0.078125 2.375 0.078125 C 2.09375 0.078125 1.820312 0.0234375 1.5625 -0.078125 C 1.3125 -0.191406 1.085938 -0.34375 0.890625 -0.53125 Z M 0.890625 -0.53125 "/></g></g></g><g fill="#fffafa" fill-opacity="1"><g transform="translate(173.601694, 249.5568)"><g><path d="M 3.1875 -6.46875 L 3.1875 -6.546875 C 3.1875 -6.554688 3.195312 -6.566406 3.21875 -6.578125 C 3.238281 -6.585938 3.25 -6.59375 3.25 -6.59375 L 4.03125 -7.1875 C 4.050781 -7.195312 4.082031 -7.203125 4.125 -7.203125 C 4.175781 -7.203125 4.210938 -7.191406 4.234375 -7.171875 C 4.265625 -7.160156 4.28125 -7.125 4.28125 -7.0625 C 4.28125 -4.425781 4.285156 -2.382812 4.296875 -0.9375 C 4.304688 -0.882812 4.300781 -0.863281 4.28125 -0.875 C 4.28125 -0.875 4.285156 -0.863281 4.296875 -0.84375 C 4.316406 -0.832031 4.351562 -0.820312 4.40625 -0.8125 C 4.457031 -0.8125 4.492188 -0.804688 4.515625 -0.796875 C 4.535156 -0.785156 4.546875 -0.75 4.546875 -0.6875 C 4.546875 -0.632812 4.535156 -0.601562 4.515625 -0.59375 L 3.796875 0 C 3.785156 0.0078125 3.75 0.015625 3.6875 0.015625 C 3.625 0.015625 3.582031 0.0078125 3.5625 0 C 3.550781 -0.0195312 3.546875 -0.0390625 3.546875 -0.0625 C 3.546875 -0.0820312 3.546875 -0.101562 3.546875 -0.125 C 3.554688 -0.15625 3.554688 -0.191406 3.546875 -0.234375 C 3.535156 -0.273438 3.523438 -0.296875 3.515625 -0.296875 C 3.503906 -0.296875 3.476562 -0.285156 3.4375 -0.265625 L 3.328125 -0.1875 C 3.023438 -0.0078125 2.71875 0.078125 2.40625 0.078125 C 2.101562 0.078125 1.820312 0.0234375 1.5625 -0.078125 C 1.3125 -0.191406 1.085938 -0.34375 0.890625 -0.53125 C 0.691406 -0.71875 0.53125 -0.941406 0.40625 -1.203125 C 0.289062 -1.472656 0.234375 -1.785156 0.234375 -2.140625 C 0.234375 -2.503906 0.328125 -2.851562 0.515625 -3.1875 C 0.703125 -3.53125 0.96875 -3.796875 1.3125 -3.984375 C 1.65625 -4.179688 2.054688 -4.28125 2.515625 -4.28125 C 2.691406 -4.28125 2.878906 -4.234375 3.078125 -4.140625 C 3.273438 -4.054688 3.425781 -3.96875 3.53125 -3.875 L 3.578125 -3.875 C 3.578125 -4.820312 3.570312 -5.566406 3.5625 -6.109375 C 3.5625 -6.203125 3.535156 -6.269531 3.484375 -6.3125 C 3.441406 -6.351562 3.390625 -6.375 3.328125 -6.375 C 3.273438 -6.375 3.242188 -6.382812 3.234375 -6.40625 C 3.203125 -6.414062 3.1875 -6.4375 3.1875 -6.46875 Z M 3.546875 -1 L 3.5625 -2.90625 C 3.425781 -3.15625 3.226562 -3.347656 2.96875 -3.484375 C 2.707031 -3.617188 2.414062 -3.6875 2.09375 -3.6875 C 1.675781 -3.6875 1.335938 -3.46875 1.078125 -3.03125 C 0.941406 -2.800781 0.875 -2.582031 0.875 -2.375 C 0.875 -1.832031 1.039062 -1.390625 1.375 -1.046875 C 1.71875 -0.710938 2.15625 -0.546875 2.6875 -0.546875 C 2.832031 -0.546875 2.984375 -0.585938 3.140625 -0.671875 C 3.304688 -0.765625 3.441406 -0.875 3.546875 -1 Z M 3.546875 -1 "/></g></g></g><g fill="#fffafa" fill-opacity="1"><g transform="translate(178.719937, 249.5568)"><g><path d="M 3.390625 -3.046875 C 3.210938 -3.546875 2.835938 -3.796875 2.265625 -3.796875 C 2.003906 -3.796875 1.765625 -3.722656 1.546875 -3.578125 C 1.328125 -3.441406 1.160156 -3.265625 1.046875 -3.046875 C 0.929688 -2.835938 0.875 -2.632812 0.875 -2.4375 C 0.875 -2.25 0.878906 -2.160156 0.890625 -2.171875 L 3.375 -3.03125 L 3.375 -3.0625 Z M 0.984375 -1.703125 C 1.109375 -1.359375 1.320312 -1.085938 1.625 -0.890625 C 1.925781 -0.691406 2.265625 -0.59375 2.640625 -0.59375 C 3.128906 -0.59375 3.570312 -0.820312 3.96875 -1.28125 C 4.03125 -1.332031 4.117188 -1.300781 4.234375 -1.1875 C 4.242188 -1.175781 4.242188 -1.160156 4.234375 -1.140625 C 3.898438 -0.679688 3.640625 -0.382812 3.453125 -0.25 C 3.140625 -0.03125 2.78125 0.078125 2.375 0.078125 C 2.09375 0.078125 1.820312 0.0195312 1.5625 -0.09375 C 1.03125 -0.320312 0.648438 -0.695312 0.421875 -1.21875 C 0.296875 -1.476562 0.234375 -1.785156 0.234375 -2.140625 C 0.234375 -2.503906 0.328125 -2.851562 0.515625 -3.1875 C 0.703125 -3.53125 0.96875 -3.796875 1.3125 -3.984375 C 1.65625 -4.179688 2.054688 -4.28125 2.515625 -4.28125 C 3.054688 -4.28125 3.546875 -4.023438 3.984375 -3.515625 C 4.191406 -3.253906 4.296875 -3.050781 4.296875 -2.90625 Z M 0.984375 -1.703125 "/></g></g></g><g fill="#fffafa" fill-opacity="1"><g transform="translate(183.627242, 249.5568)"><g><path d="M 0.375 -3.453125 L 0.390625 -3.53125 C 0.390625 -3.550781 0.394531 -3.566406 0.40625 -3.578125 C 0.425781 -3.585938 0.4375 -3.59375 0.4375 -3.59375 L 1.234375 -4.171875 C 1.242188 -4.179688 1.273438 -4.1875 1.328125 -4.1875 C 1.378906 -4.1875 1.414062 -4.179688 1.4375 -4.171875 C 1.457031 -4.160156 1.46875 -4.117188 1.46875 -4.046875 L 1.46875 -3.296875 C 1.488281 -3.328125 1.515625 -3.359375 1.546875 -3.390625 C 1.753906 -3.648438 1.972656 -3.851562 2.203125 -4 C 2.429688 -4.144531 2.691406 -4.21875 2.984375 -4.21875 C 3.078125 -4.21875 3.128906 -4.207031 3.140625 -4.1875 C 3.191406 -4.050781 3.234375 -3.921875 3.265625 -3.796875 L 3.390625 -3.28125 C 3.398438 -3.25 3.378906 -3.21875 3.328125 -3.1875 C 3.273438 -3.15625 3.234375 -3.140625 3.203125 -3.140625 C 3.171875 -3.148438 3.140625 -3.179688 3.109375 -3.234375 L 3.0625 -3.3125 C 2.90625 -3.457031 2.722656 -3.515625 2.515625 -3.484375 C 2.304688 -3.453125 2.109375 -3.375 1.921875 -3.25 C 1.734375 -3.125 1.59375 -2.992188 1.5 -2.859375 C 1.5 -2.847656 1.492188 -2.832031 1.484375 -2.8125 C 1.472656 -2.800781 1.46875 -2.789062 1.46875 -2.78125 L 1.46875 -0.765625 C 1.46875 -0.753906 1.46875 -0.722656 1.46875 -0.671875 C 1.46875 -0.628906 1.46875 -0.597656 1.46875 -0.578125 C 1.488281 -0.390625 1.550781 -0.273438 1.65625 -0.234375 C 1.757812 -0.191406 1.8125 -0.15625 1.8125 -0.125 C 1.8125 -0.0390625 1.796875 0 1.765625 0 L 0.453125 0 C 0.421875 0 0.40625 -0.0234375 0.40625 -0.078125 C 0.40625 -0.128906 0.414062 -0.160156 0.4375 -0.171875 C 0.457031 -0.191406 0.484375 -0.207031 0.515625 -0.21875 C 0.554688 -0.238281 0.585938 -0.257812 0.609375 -0.28125 C 0.648438 -0.320312 0.679688 -0.367188 0.703125 -0.421875 C 0.734375 -0.484375 0.75 -0.550781 0.75 -0.625 C 0.75 -0.707031 0.75 -0.753906 0.75 -0.765625 L 0.75 -3.09375 C 0.75 -3.1875 0.722656 -3.253906 0.671875 -3.296875 C 0.628906 -3.335938 0.582031 -3.359375 0.53125 -3.359375 C 0.476562 -3.359375 0.441406 -3.367188 0.421875 -3.390625 C 0.390625 -3.410156 0.375 -3.429688 0.375 -3.453125 Z M 0.375 -3.453125 "/></g></g></g><g fill="#fffafa" fill-opacity="1"><g transform="translate(187.413943, 249.5568)"><g><path d="M 0.453125 0 C 0.410156 0 0.390625 -0.0234375 0.390625 -0.078125 C 0.390625 -0.128906 0.398438 -0.160156 0.421875 -0.171875 C 0.453125 -0.191406 0.484375 -0.207031 0.515625 -0.21875 C 0.554688 -0.238281 0.585938 -0.257812 0.609375 -0.28125 C 0.703125 -0.363281 0.742188 -0.460938 0.734375 -0.578125 C 0.734375 -0.691406 0.734375 -0.753906 0.734375 -0.765625 L 0.734375 -3.09375 C 0.734375 -3.1875 0.707031 -3.253906 0.65625 -3.296875 C 0.613281 -3.335938 0.566406 -3.359375 0.515625 -3.359375 C 0.460938 -3.359375 0.425781 -3.363281 0.40625 -3.375 C 0.394531 -3.394531 0.382812 -3.410156 0.375 -3.421875 C 0.375 -3.429688 0.375 -3.441406 0.375 -3.453125 C 0.375 -3.460938 0.375 -3.472656 0.375 -3.484375 C 0.375 -3.503906 0.375 -3.519531 0.375 -3.53125 C 0.375 -3.539062 0.375 -3.546875 0.375 -3.546875 C 0.382812 -3.554688 0.394531 -3.566406 0.40625 -3.578125 C 0.414062 -3.585938 0.425781 -3.59375 0.4375 -3.59375 L 1.21875 -4.171875 C 1.226562 -4.179688 1.257812 -4.1875 1.3125 -4.1875 C 1.363281 -4.1875 1.398438 -4.179688 1.421875 -4.171875 C 1.453125 -4.160156 1.46875 -4.117188 1.46875 -4.046875 L 1.46875 -3.734375 L 1.6875 -3.859375 L 1.828125 -3.921875 C 2.234375 -4.128906 2.613281 -4.234375 2.96875 -4.234375 C 3.320312 -4.234375 3.671875 -4.109375 4.015625 -3.859375 C 4.171875 -3.742188 4.296875 -3.601562 4.390625 -3.4375 C 4.492188 -3.269531 4.546875 -3.101562 4.546875 -2.9375 L 4.546875 -0.578125 C 4.546875 -0.515625 4.5625 -0.445312 4.59375 -0.375 C 4.625 -0.300781 4.675781 -0.25 4.75 -0.21875 C 4.832031 -0.1875 4.875 -0.15625 4.875 -0.125 C 4.875 -0.0390625 4.859375 0 4.828125 0 L 3.53125 0 C 3.5 0 3.484375 -0.0234375 3.484375 -0.078125 C 3.484375 -0.128906 3.492188 -0.160156 3.515625 -0.171875 C 3.546875 -0.191406 3.578125 -0.207031 3.609375 -0.21875 C 3.648438 -0.238281 3.679688 -0.257812 3.703125 -0.28125 C 3.722656 -0.300781 3.742188 -0.328125 3.765625 -0.359375 C 3.785156 -0.390625 3.796875 -0.421875 3.796875 -0.453125 C 3.804688 -0.492188 3.8125 -0.523438 3.8125 -0.546875 C 3.8125 -0.566406 3.8125 -0.601562 3.8125 -0.65625 C 3.8125 -0.71875 3.8125 -0.753906 3.8125 -0.765625 L 3.8125 -2.828125 C 3.8125 -2.992188 3.753906 -3.144531 3.640625 -3.28125 C 3.410156 -3.53125 3.09375 -3.65625 2.6875 -3.65625 C 2.28125 -3.65625 1.875 -3.550781 1.46875 -3.34375 L 1.46875 -0.578125 C 1.46875 -0.515625 1.484375 -0.445312 1.515625 -0.375 C 1.546875 -0.300781 1.601562 -0.25 1.6875 -0.21875 C 1.769531 -0.1875 1.8125 -0.15625 1.8125 -0.125 C 1.8125 -0.0390625 1.789062 0 1.75 0 Z M 0.453125 0 "/></g></g></g><g fill="#fffafa" fill-opacity="1"><g transform="translate(192.892539, 249.5568)"><g/></g></g><g fill="#fffafa" fill-opacity="1"><g transform="translate(195.45756, 249.5568)"><g><path d="M 1.515625 -0.046875 C 1.429688 -0.0664062 1.335938 -0.09375 1.234375 -0.125 C 1.128906 -0.164062 1.0625 -0.1875 1.03125 -0.1875 L 0.96875 -0.1875 C 0.863281 -0.1875 0.785156 -0.128906 0.734375 -0.015625 C 0.734375 -0.00390625 0.734375 0 0.734375 0 L 0.59375 0 C 0.582031 0 0.570312 -0.00390625 0.5625 -0.015625 L 0.1875 -1.3125 C 0.175781 -1.375 0.222656 -1.40625 0.328125 -1.40625 C 0.367188 -1.40625 0.394531 -1.394531 0.40625 -1.375 C 0.414062 -1.363281 0.425781 -1.351562 0.4375 -1.34375 C 0.445312 -1.34375 0.460938 -1.328125 0.484375 -1.296875 C 0.867188 -0.816406 1.429688 -0.578125 2.171875 -0.578125 C 2.566406 -0.578125 2.894531 -0.679688 3.15625 -0.890625 C 3.414062 -1.097656 3.546875 -1.398438 3.546875 -1.796875 C 3.546875 -2.066406 3.5 -2.269531 3.40625 -2.40625 C 3.320312 -2.539062 3.253906 -2.640625 3.203125 -2.703125 C 3.085938 -2.847656 2.804688 -3.046875 2.359375 -3.296875 C 1.910156 -3.546875 1.550781 -3.769531 1.28125 -3.96875 C 0.582031 -4.476562 0.234375 -5 0.234375 -5.53125 C 0.234375 -6.070312 0.398438 -6.488281 0.734375 -6.78125 C 1.066406 -7.070312 1.507812 -7.21875 2.0625 -7.21875 C 2.375 -7.21875 2.703125 -7.132812 3.046875 -6.96875 C 3.210938 -6.882812 3.332031 -6.828125 3.40625 -6.796875 C 3.476562 -6.773438 3.53125 -6.789062 3.5625 -6.84375 C 3.59375 -6.90625 3.613281 -6.9375 3.625 -6.9375 C 3.75 -6.957031 3.8125 -6.9375 3.8125 -6.875 L 3.953125 -5.46875 C 3.953125 -5.445312 3.882812 -5.4375 3.75 -5.4375 C 3.726562 -5.4375 3.707031 -5.460938 3.6875 -5.515625 C 3.601562 -5.804688 3.394531 -6.050781 3.0625 -6.25 C 2.726562 -6.445312 2.394531 -6.546875 2.0625 -6.546875 C 1.34375 -6.546875 0.984375 -6.253906 0.984375 -5.671875 C 0.984375 -5.242188 1.367188 -4.820312 2.140625 -4.40625 L 2.984375 -3.953125 C 3.492188 -3.671875 3.847656 -3.363281 4.046875 -3.03125 C 4.253906 -2.707031 4.359375 -2.359375 4.359375 -1.984375 L 4.359375 -1.9375 C 4.285156 -1.425781 4.203125 -1.082031 4.109375 -0.90625 C 3.929688 -0.601562 3.6875 -0.363281 3.375 -0.1875 C 3.0625 -0.0078125 2.707031 0.078125 2.3125 0.078125 C 2.09375 0.078125 1.910156 0.0546875 1.765625 0.015625 Z M 1.515625 -0.046875 "/></g></g></g><g fill="#fffafa" fill-opacity="1"><g transform="translate(200.312132, 249.5568)"><g><path d="M 0.953125 -4.96875 C 0.960938 -5.03125 1.015625 -5.0625 1.109375 -5.0625 C 1.210938 -5.0625 1.265625 -5.03125 1.265625 -4.96875 L 1.265625 -4.1875 L 2.046875 -4.1875 C 2.191406 -4.1875 2.265625 -4.164062 2.265625 -4.125 L 2.265625 -3.75 C 2.265625 -3.707031 2.191406 -3.6875 2.046875 -3.6875 L 1.265625 -3.6875 L 1.265625 -0.953125 C 1.265625 -0.609375 1.367188 -0.414062 1.578125 -0.375 C 1.734375 -0.34375 1.894531 -0.398438 2.0625 -0.546875 C 2.125 -0.609375 2.164062 -0.625 2.1875 -0.59375 C 2.21875 -0.5625 2.238281 -0.535156 2.25 -0.515625 C 2.269531 -0.503906 2.28125 -0.488281 2.28125 -0.46875 C 2.28125 -0.445312 2.28125 -0.4375 2.28125 -0.4375 C 2.28125 -0.414062 2.265625 -0.390625 2.234375 -0.359375 L 2.140625 -0.28125 C 1.828125 -0.0078125 1.523438 0.109375 1.234375 0.078125 C 0.953125 0.0546875 0.753906 -0.109375 0.640625 -0.421875 C 0.578125 -0.585938 0.546875 -0.796875 0.546875 -1.046875 L 0.546875 -3.6875 L 0.34375 -3.6875 C 0.1875 -3.6875 0.109375 -3.707031 0.109375 -3.75 L 0.109375 -4.125 C 0.109375 -4.164062 0.171875 -4.1875 0.296875 -4.1875 C 0.515625 -4.1875 0.671875 -4.257812 0.765625 -4.40625 C 0.859375 -4.5625 0.921875 -4.75 0.953125 -4.96875 Z M 0.953125 -4.96875 "/></g></g></g><g fill="#fffafa" fill-opacity="1"><g transform="translate(202.965044, 249.5568)"><g><path d="M 1.421875 -3.5 C 1.234375 -3.382812 1.09375 -3.226562 1 -3.03125 C 0.914062 -2.832031 0.875 -2.582031 0.875 -2.28125 C 0.875 -1.988281 0.957031 -1.691406 1.125 -1.390625 C 1.289062 -1.085938 1.515625 -0.847656 1.796875 -0.671875 C 2.085938 -0.503906 2.375 -0.421875 2.65625 -0.421875 C 2.945312 -0.421875 3.179688 -0.484375 3.359375 -0.609375 C 3.546875 -0.742188 3.6875 -0.910156 3.78125 -1.109375 C 3.875 -1.316406 3.921875 -1.546875 3.921875 -1.796875 C 3.921875 -2.316406 3.753906 -2.757812 3.421875 -3.125 C 3.097656 -3.5 2.65625 -3.6875 2.09375 -3.6875 C 1.84375 -3.6875 1.617188 -3.625 1.421875 -3.5 Z M 0.890625 -0.53125 C 0.691406 -0.71875 0.53125 -0.941406 0.40625 -1.203125 C 0.289062 -1.472656 0.234375 -1.785156 0.234375 -2.140625 C 0.234375 -2.503906 0.328125 -2.851562 0.515625 -3.1875 C 0.703125 -3.53125 0.96875 -3.796875 1.3125 -3.984375 C 1.65625 -4.179688 2.015625 -4.28125 2.390625 -4.28125 C 3.066406 -4.28125 3.601562 -4.066406 4 -3.640625 C 4.40625 -3.210938 4.609375 -2.691406 4.609375 -2.078125 C 4.617188 -1.472656 4.410156 -0.960938 3.984375 -0.546875 C 3.554688 -0.128906 3.019531 0.078125 2.375 0.078125 C 2.09375 0.078125 1.820312 0.0234375 1.5625 -0.078125 C 1.3125 -0.191406 1.085938 -0.34375 0.890625 -0.53125 Z M 0.890625 -0.53125 "/></g></g></g><g fill="#fffafa" fill-opacity="1"><g transform="translate(208.131625, 249.5568)"><g><path d="M 0.375 -3.453125 L 0.390625 -3.53125 C 0.390625 -3.550781 0.394531 -3.566406 0.40625 -3.578125 C 0.425781 -3.585938 0.4375 -3.59375 0.4375 -3.59375 L 1.234375 -4.171875 C 1.242188 -4.179688 1.273438 -4.1875 1.328125 -4.1875 C 1.378906 -4.1875 1.414062 -4.179688 1.4375 -4.171875 C 1.457031 -4.160156 1.46875 -4.117188 1.46875 -4.046875 L 1.46875 -3.296875 C 1.488281 -3.328125 1.515625 -3.359375 1.546875 -3.390625 C 1.753906 -3.648438 1.972656 -3.851562 2.203125 -4 C 2.429688 -4.144531 2.691406 -4.21875 2.984375 -4.21875 C 3.078125 -4.21875 3.128906 -4.207031 3.140625 -4.1875 C 3.191406 -4.050781 3.234375 -3.921875 3.265625 -3.796875 L 3.390625 -3.28125 C 3.398438 -3.25 3.378906 -3.21875 3.328125 -3.1875 C 3.273438 -3.15625 3.234375 -3.140625 3.203125 -3.140625 C 3.171875 -3.148438 3.140625 -3.179688 3.109375 -3.234375 L 3.0625 -3.3125 C 2.90625 -3.457031 2.722656 -3.515625 2.515625 -3.484375 C 2.304688 -3.453125 2.109375 -3.375 1.921875 -3.25 C 1.734375 -3.125 1.59375 -2.992188 1.5 -2.859375 C 1.5 -2.847656 1.492188 -2.832031 1.484375 -2.8125 C 1.472656 -2.800781 1.46875 -2.789062 1.46875 -2.78125 L 1.46875 -0.765625 C 1.46875 -0.753906 1.46875 -0.722656 1.46875 -0.671875 C 1.46875 -0.628906 1.46875 -0.597656 1.46875 -0.578125 C 1.488281 -0.390625 1.550781 -0.273438 1.65625 -0.234375 C 1.757812 -0.191406 1.8125 -0.15625 1.8125 -0.125 C 1.8125 -0.0390625 1.796875 0 1.765625 0 L 0.453125 0 C 0.421875 0 0.40625 -0.0234375 0.40625 -0.078125 C 0.40625 -0.128906 0.414062 -0.160156 0.4375 -0.171875 C 0.457031 -0.191406 0.484375 -0.207031 0.515625 -0.21875 C 0.554688 -0.238281 0.585938 -0.257812 0.609375 -0.28125 C 0.648438 -0.320312 0.679688 -0.367188 0.703125 -0.421875 C 0.734375 -0.484375 0.75 -0.550781 0.75 -0.625 C 0.75 -0.707031 0.75 -0.753906 0.75 -0.765625 L 0.75 -3.09375 C 0.75 -3.1875 0.722656 -3.253906 0.671875 -3.296875 C 0.628906 -3.335938 0.582031 -3.359375 0.53125 -3.359375 C 0.476562 -3.359375 0.441406 -3.367188 0.421875 -3.390625 C 0.390625 -3.410156 0.375 -3.429688 0.375 -3.453125 Z M 0.375 -3.453125 "/></g></g></g><g fill="#fffafa" fill-opacity="1"><g transform="translate(211.918326, 249.5568)"><g><path d="M 3.390625 -3.046875 C 3.210938 -3.546875 2.835938 -3.796875 2.265625 -3.796875 C 2.003906 -3.796875 1.765625 -3.722656 1.546875 -3.578125 C 1.328125 -3.441406 1.160156 -3.265625 1.046875 -3.046875 C 0.929688 -2.835938 0.875 -2.632812 0.875 -2.4375 C 0.875 -2.25 0.878906 -2.160156 0.890625 -2.171875 L 3.375 -3.03125 L 3.375 -3.0625 Z M 0.984375 -1.703125 C 1.109375 -1.359375 1.320312 -1.085938 1.625 -0.890625 C 1.925781 -0.691406 2.265625 -0.59375 2.640625 -0.59375 C 3.128906 -0.59375 3.570312 -0.820312 3.96875 -1.28125 C 4.03125 -1.332031 4.117188 -1.300781 4.234375 -1.1875 C 4.242188 -1.175781 4.242188 -1.160156 4.234375 -1.140625 C 3.898438 -0.679688 3.640625 -0.382812 3.453125 -0.25 C 3.140625 -0.03125 2.78125 0.078125 2.375 0.078125 C 2.09375 0.078125 1.820312 0.0195312 1.5625 -0.09375 C 1.03125 -0.320312 0.648438 -0.695312 0.421875 -1.21875 C 0.296875 -1.476562 0.234375 -1.785156 0.234375 -2.140625 C 0.234375 -2.503906 0.328125 -2.851562 0.515625 -3.1875 C 0.703125 -3.53125 0.96875 -3.796875 1.3125 -3.984375 C 1.65625 -4.179688 2.054688 -4.28125 2.515625 -4.28125 C 3.054688 -4.28125 3.546875 -4.023438 3.984375 -3.515625 C 4.191406 -3.253906 4.296875 -3.050781 4.296875 -2.90625 Z M 0.984375 -1.703125 "/></g></g></g></svg>