<svg id="Icons" height="512" viewBox="0 0 60 60" width="512" xmlns="http://www.w3.org/2000/svg"><path d="m18.548 59.47a.5.5 0 0 1 -.264-.925l7.94-4.926-10.018 5.781a.5.5 0 0 1 -.514-.857l9.619-5.964-11.811 6.821a.5.5 0 0 1 -.513-.858l8.611-5.3-10.679 6.158a.5.5 0 0 1 -.511-.859l4.776-2.913-6.536 3.772a.5.5 0 0 1 -.51-.859l7.476-4.574-9.384 5.419a.5.5 0 0 1 -.51-.86l7.32-4.472-8.14 4.7a.5.5 0 0 1 -.511-.858l10.034-6.165-10.112 5.837a.5.5 0 0 1 -.514-.857l13.127-8.147-12.472 7.2a.5.5 0 0 1 -.513-.859l8.877-5.482-8.16 4.711a.5.5 0 0 1 -.519-.854l14.945-9.547-14.147 8.167a.5.5 0 0 1 -.517-.855l9.163-5.784-8.425 4.866a.5.5 0 0 1 -.515-.856l4.827-3.028-4.123 2.38a.5.5 0 0 1 -.53-.848l11.815-7.956-10.978 6.338a.5.5 0 0 1 -.526-.848l7.155-4.753-6.389 3.688a.5.5 0 0 1 -.532-.844l5.806-3.94-5.04 2.91a.5.5 0 0 1 -.545-.837l5.84-4.259-5.021 2.896a.5.5 0 0 1 -.56-.824l3.513-2.787-2.441 1.408a.5.5 0 0 1 -.574-.814l1.316-1.121a.481.481 0 0 1 -.16-.169.5.5 0 0 1 .183-.682l3.077-1.781a.5.5 0 0 1 .574.814l-.168.142 3.567-2.056a.5.5 0 0 1 .663.151.5.5 0 0 1 -.1.673l-3.515 2.789 7.27-4.2a.5.5 0 0 1 .545.837l-5.838 4.257 8.825-5.095a.5.5 0 0 1 .531.846l-5.808 3.942 8.292-4.787a.5.5 0 0 1 .526.848l-7.159 4.759 9.707-5.6a.5.5 0 0 1 .529.847l-11.81 7.954 15.243-8.8a.5.5 0 0 1 .516.856l-4.844 3.033 6.744-3.893a.5.5 0 0 1 .516.855l-9.157 5.78 11.497-6.635a.5.5 0 0 1 .52.853l-14.95 9.548 18.017-10.4a.5.5 0 0 1 .513.858l-8.877 5.483 10.515-6.071a.5.5 0 0 1 .513.858l-13.131 8.148 14.633-8.448a.5.5 0 0 1 .512.858l-10.027 6.16 11.3-6.523a.5.5 0 0 1 .511.859l-7.3 4.461 8.419-4.861a.5.5 0 0 1 .511.859l-7.5 4.588 8.382-4.839a.5.5 0 0 1 .511.86l-4.786 2.919 5.281-3.048a.5.5 0 0 1 .512.858l-8.607 5.303 8.986-5.187a.5.5 0 0 1 .514.857l-9.616 5.962 9.785-5.649a.5.5 0 0 1 .514.858l-7.923 4.915 7.81-4.509a.5.5 0 0 1 .513.858l-3.285 2.024 2.945-1.7a.5.5 0 0 1 .522.852l-13.037 8.443 12.759-7.367a.5.5 0 0 1 .525.851l-11.441 7.5 11.157-6.441a.5.5 0 0 1 .517.855l-3.519 2.229 3.159-1.824a.5.5 0 0 1 .519.855l-2.748 1.751 2.382-1.375a.5.5 0 0 1 .527.849l-5.736 3.8 5.4-3.118a.5.5 0 0 1 .541.839l-7.392 5.291 7.1-4.1a.5.5 0 0 1 .54.84l-4.405 3.137 4.068-2.348a.5.5 0 0 1 .558.826l-4.123 3.233 3.8-2.192a.5.5 0 0 1 .58.807l-2.732 2.408 2.382-1.375a.5.5 0 0 1 .62.769l-1.374 1.512.953-.55a.5.5 0 0 1 .5.865l-3.731 2.149a.5.5 0 0 1 -.62-.768l1.374-1.513-3.951 2.281a.5.5 0 0 1 -.58-.807l2.731-2.407-5.568 3.214a.5.5 0 0 1 -.559-.826l4.124-3.233-7.032 4.059a.5.5 0 0 1 -.54-.839l4.405-3.137-6.889 3.976a.5.5 0 0 1 -.541-.839l7.389-5.289-10.614 6.128a.5.5 0 0 1 -.526-.849l5.736-3.8-8.054 4.649a.5.5 0 0 1 -.518-.854l2.752-1.754-4.519 2.608a.5.5 0 0 1 -.517-.855l3.531-2.236-5.356 3.091a.5.5 0 0 1 -.525-.85l11.436-7.495-14.455 8.345a.5.5 0 0 1 -.522-.852l13.042-8.444-16.1 9.3a.5.5 0 0 1 -.513-.858l3.266-2.013-4.973 2.867a.5.5 0 0 1 -.252.07z" fill="#323a75"/><path d="m28.938 55.23a.5.5 0 0 1 -.307-.893l5.081-3.971-6.354 3.668a.5.5 0 0 1 -.546-.835l7.141-5.279-8.305 4.794a.5.5 0 0 1 -.671-.164.5.5 0 0 1 .134-.679l7.51-5.253-8.355 4.823a.5.5 0 0 1 -.529-.848l6.286-4.206-6.816 3.935a.5.5 0 0 1 -.532-.845l8.249-5.635-8.849 5.108a.5.5 0 0 1 -.531-.846l8.21-5.592-8.689 5.016a.5.5 0 0 1 -.529-.847l9.95-6.689-10.366 5.985a.5.5 0 0 1 -.517-.856l1.062-.671-1.041.6a.5.5 0 0 1 -.531-.847l9.384-6.371-9.629 5.559a.5.5 0 0 1 -.521-.853l2.967-1.912-2.886 1.666a.5.5 0 0 1 -.53-.847l7.434-5.04-7.446 4.3a.5.5 0 0 1 -.524-.85l2.686-1.767-2.5 1.442a.5.5 0 0 1 -.545-.837l6.248-4.559-4.931 2.847a.5.5 0 0 1 -.562-.824l4.2-3.34-3.498 2.016a.5.5 0 0 1 -.553-.83l.9-.69-1.293.746a.5.5 0 0 1 -.6-.791l.809-.785-.394.227a.5.5 0 0 1 -.5-.865l3.891-2.245a.5.5 0 0 1 .6.792l-.808.784 4.466-2.576a.5.5 0 0 1 .554.83l-.9.691 2.632-1.521a.5.5 0 0 1 .562.824l-4.2 3.341 7.218-4.165a.5.5 0 0 1 .545.837l-6.247 4.559 9.349-5.4a.5.5 0 0 1 .524.851l-2.686 1.766 4.485-2.589a.5.5 0 0 1 .53.847l-7.435 5.042 8.689-5.017a.5.5 0 0 1 .521.853l-2.963 1.909 3.711-2.143a.5.5 0 0 1 .531.847l-9.384 6.372 10.829-6.254a.5.5 0 0 1 .518.856l-1.067.673 1.4-.805a.5.5 0 0 1 .529.847l-9.947 6.687 7.644-4.416a.5.5 0 0 1 .532.846l-8.215 5.595 8.64-4.988a.5.5 0 0 1 .533.846l-8.248 5.633 8.478-4.894a.5.5 0 0 1 .528.849l-6.282 4.2 5.216-3.009a.5.5 0 0 1 .537.843l-7.519 5.257 6-3.465a.5.5 0 0 1 .547.835l-7.138 5.277 4.891-2.821a.5.5 0 0 1 .558.826l-5.083 3.972 1.6-.925a.5.5 0 1 1 .5.865l-7.793 4.5a.491.491 0 0 1 -.244.066z" fill="#3f4c8c"/><path d="m24.636 39.414a.5.5 0 0 1 -.282-.913l1.432-.978-2.136 1.233a.5.5 0 0 1 -.542-.839l4.817-3.467-4.448 2.569a.5.5 0 0 1 -.535-.844l.76-.526-.316.183a.5.5 0 0 1 -.54-.84l.436-.311a.5.5 0 0 1 -.552-.821l2.291-2.09-1.768 1.02a.5.5 0 0 1 -.609-.78l.74-.767-.145.083a.5.5 0 0 1 -.73-.572l.284-.981a.5.5 0 0 1 -.026-.88l.511-.3a.5.5 0 0 1 .731.572l-.2.671 2.156-1.236a.5.5 0 0 1 .609.78l-.74.768 2.679-1.548a.5.5 0 0 1 .587.8l-2.292 2.092 5.01-2.893a.5.5 0 0 1 .54.84l-.419.3 1.972-1.139a.5.5 0 0 1 .534.844l-.758.524 2.369-1.368a.5.5 0 0 1 .542.839l-4.819 3.468 4.979-2.874a.5.5 0 0 1 .532.846l-1.442.984.909-.524a.5.5 0 0 1 .56.824l-3.651 2.891 3.034-1.754a.5.5 0 0 1 .577.81l-2 1.73 1.324-.764a.5.5 0 0 1 .682.686l-1.027 1.753.14-.081a.5.5 0 1 1 .5.865l-1.777 1.026a.5.5 0 0 1 -.682-.685l1.028-1.753-4.239 2.446a.5.5 0 0 1 -.577-.811l2-1.728-4.406 2.546a.5.5 0 0 1 -.56-.824l3.653-2.893-6.45 3.724a.494.494 0 0 1 -.25.067z" fill="#fff"/><path d="m29.658 55.136a.5.5 0 0 1 -.365-.842l1.125-1.2-1.531.884a.5.5 0 0 1 -.6-.794l2.784-2.662-3.307 1.909a.5.5 0 0 1 -.562-.824l2.321-1.846-2.477 1.43a.5.5 0 0 1 -.558-.828l3.21-2.505-3.333 1.924a.5.5 0 0 1 -.546-.836l2.614-1.921-2.583 1.492a.5.5 0 0 1 -.546-.836l3.396-2.491-3.332 1.924a.5.5 0 0 1 -.537-.842l1.928-1.351-1.749 1.008a.5.5 0 0 1 -.537-.842l1.256-.881-1.016.587a.5.5 0 0 1 -.559-.825l3.935-3.1-3.77 2.176a.5.5 0 0 1 -.542-.839l.709-.509-.38.219a.5.5 0 0 1 -.562-.823l2.632-2.107-2.324 1.342a.5.5 0 0 1 -.577-.811l4.621-3.98a.5.5 0 0 1 .182-.683l1.89-1.09a.5.5 0 0 1 .576.811l-2.586 2.228 3.429-1.98a.5.5 0 0 1 .562.823l-2.635 2.11 3.386-1.948a.5.5 0 0 1 .542.839l-.709.508 1.113-.641a.5.5 0 0 1 .558.825l-3.934 3.093 4.861-2.807a.5.5 0 0 1 .537.842l-1.254.879 1.7-.984a.5.5 0 0 1 .537.842l-1.93 1.354 1.38-.8a.5.5 0 0 1 .546.836l-3.389 2.487 2.525-1.458a.5.5 0 0 1 .546.836l-2.616 1.922 1.7-.981a.5.5 0 0 1 .558.827l-3.21 2.505 2.09-1.206a.5.5 0 0 1 .561.825l-2.32 1.85 1.083-.625a.5.5 0 0 1 .6.794l-2.785 2.662.843-.486a.5.5 0 0 1 .615.774l-1.925 2.059a.474.474 0 0 1 .1.125.5.5 0 0 1 -.183.683l-1.529.882a.49.49 0 0 1 -.253.068z" fill="#e8edf4"/><path d="m31.085 40.473a.5.5 0 0 1 -.417-.776l.644-.974-2.695 1.554a.5.5 0 0 1 -.6-.789l1.273-1.254-1.3.753a.5.5 0 0 1 -.612-.777l1.063-1.116-1.074.62a.5.5 0 0 1 -.6-.787l1.26-1.25a.523.523 0 0 1 -.119-.14.5.5 0 0 1 .183-.683l1.884-1.086a.5.5 0 0 1 .6.787l-.367.364.741-.428a.5.5 0 0 1 .613.778l-1.064 1.115 1.69-.975a.5.5 0 0 1 .6.789l-1.278 1.254 1.135-.654a.5.5 0 0 1 .667.708l-1.151 1.743a.563.563 0 0 1 .052.073.5.5 0 0 1 -.184.684l-.694.4a.5.5 0 0 1 -.25.067z" fill="#1383ba"/><path d="m30.669 34.34a.5.5 0 0 1 -.312-.891l1.042-.832-2.552 1.474a.5.5 0 0 1 -.552-.832l1.553-1.172-2.52 1.454a.5.5 0 0 1 -.549-.833l2.376-1.773-3.2 1.846a.5.5 0 0 1 -.577-.81l3.67-3.171-4.6 2.653a.5.5 0 0 1 -.581-.807l2.243-1.982-2.548 1.471a.5.5 0 0 1 -.634-.752l1.5-1.811-.8.463a.5.5 0 0 1 -.694-.664l.479-.92a.463.463 0 0 1 -.09-.114.5.5 0 0 1 .183-.683l.586-.338a.5.5 0 0 1 .693.664l-.172.332 1.731-1a.5.5 0 0 1 .634.752l-1.5 1.811 4.451-2.57a.5.5 0 0 1 .581.808l-2.241 1.987 4.84-2.8a.5.5 0 0 1 .578.812l-3.668 3.17 6.009-3.469a.5.5 0 0 1 .549.834l-2.377 1.775 2.167-1.251a.5.5 0 0 1 .552.832l-1.551 1.171 1.306-.754a.5.5 0 0 1 .561.824l-1.263 1.008a.508.508 0 0 1 .488.248.5.5 0 0 1 -.183.683l-5.353 3.089a.493.493 0 0 1 -.255.068z" fill="#875050"/><path d="m29.831 55.3a.5.5 0 0 1 -.36-.846l.153-.161-.3.176a.5.5 0 0 1 -.608-.781l2.19-2.248-2.738 1.582a.5.5 0 0 1 -.569-.818l1-.83-1.091.626a.5.5 0 0 1 -.573-.813l1.675-1.424-1.769 1.021a.5.5 0 0 1 -.585-.8l2.6-2.341-2.215 1.279a.5.5 0 0 1 -.595-.8l2.84-2.706-1.627.938a.5.5 0 0 1 -.583-.8l1.312-1.174-.291.168a.5.5 0 0 1 -.626-.762l1.6-1.826-.405.233a.5.5 0 0 1 -.6-.073.5.5 0 0 1 -.094-.595l.427-.8a.519.519 0 0 1 -.083-.107.5.5 0 0 1 .184-.683l.587-.339a.5.5 0 0 1 .692.669l-.1.187 1.51-.871a.5.5 0 0 1 .626.762l-1.6 1.826 1.862-1.074a.5.5 0 0 1 .583.8l-1.315 1.176 1.063-.613a.5.5 0 0 1 .594.8l-2.838 2.7 2.715-1.558a.5.5 0 0 1 .584.8l-2.6 2.34 2.437-1.407a.5.5 0 0 1 .574.813l-1.68 1.427 1.447-.835a.5.5 0 0 1 .57.817l-1 .829.727-.42a.5.5 0 0 1 .609.781l-2.191 2.247.215-.124a.5.5 0 0 1 .61.778l-1.622 1.692a.5.5 0 0 1 -.221.6l-.856.494a.49.49 0 0 1 -.251.068z" fill="#269dd4"/><path d="m29.177 29.442a.5.5 0 0 1 -.3-.9l7.06-5.188-9.537 5.507a.5.5 0 0 1 -.53-.847l6.268-4.248-7.623 4.4a.5.5 0 0 1 -.523-.853l3.854-2.5-4.646 2.68a.5.5 0 0 1 -.524-.851l6.28-4.121-7.078 4.087a.5.5 0 0 1 -.519-.854l3.815-2.445-4.291 2.478a.5.5 0 0 1 -.53-.848l10.921-7.4-11.774 6.801a.5.5 0 0 1 -.525-.85l9.135-6.025-9.595 5.535a.5.5 0 0 1 -.52-.855l4.918-3.143-5.036 2.907a.5.5 0 0 1 -.523-.851l8.248-5.4-8.369 4.842a.5.5 0 0 1 -.517-.855l2.725-1.728-2.582 1.483a.5.5 0 0 1 -.52-.854l4.641-2.978-4.436 2.561a.5.5 0 0 1 -.52-.854l3.57-2.285-3.234 1.87a.5.5 0 0 1 -.53-.847l8.677-5.863-8.207 4.74a.5.5 0 0 1 -.529-.848l6.576-4.421-5.847 3.379a.5.5 0 0 1 -.531-.847l5.287-3.593-4.256 2.453a.5.5 0 0 1 -.549-.835l5.9-4.388-3.979 2.3a.5.5 0 0 1 -.562-.823l2.948-2.367a.492.492 0 0 1 -.3-.232.5.5 0 0 1 .183-.684l4.537-2.619a.5.5 0 0 1 .562.824l-2.197 1.758 5.777-3.336a.5.5 0 0 1 .549.835l-5.9 4.389 8.583-4.957a.5.5 0 0 1 .531.847l-5.283 3.593 6.721-3.881a.5.5 0 0 1 .529.848l-6.581 4.423 7.791-4.5a.5.5 0 0 1 .53.847l-8.674 5.863 9.816-5.667a.5.5 0 0 1 .519.854l-3.574 2.289 4.063-2.346a.5.5 0 0 1 .521.854l-4.642 2.978 5.062-2.922a.5.5 0 0 1 .517.855l-2.727 1.729 2.971-1.715a.5.5 0 0 1 .523.851l-8.245 5.394 8.626-4.98a.5.5 0 0 1 .519.854l-4.917 3.144 5.029-2.9a.5.5 0 0 1 .525.85l-9.136 6.025 9.278-5.356a.5.5 0 0 1 .53.847l-10.921 7.4 10.953-6.324a.5.5 0 0 1 .52.854l-3.813 2.443 3.5-2.022a.5.5 0 0 1 .525.851l-6.284 4.123 5.862-3.384a.5.5 0 0 1 .522.852l-3.85 2.5 3.253-1.878a.5.5 0 0 1 .53.847l-6.271 4.245 5.4-3.115a.5.5 0 0 1 .546.836l-7.058 5.186 5.458-3.151a.5.5 0 0 1 .546.836l-2.872 2.1.665-.384a.5.5 0 0 1 .5.866l-8.628 4.982a.5.5 0 0 1 -.546-.837l2.871-2.1-5.355 3.092a.491.491 0 0 1 -.25.068z" fill="#f7d53f"/><g fill="#262626"><path d="m6.149 59.528c12.391.026 24.779-.017 37.169 0 4.734-.6 15.555 2.685 13.083-5.615-1.939-10.7 1.139-20.9-13.024-22.269-1.644-1.328-3.812-1.961-5.668-2.97a6.883 6.883 0 0 0 -.338-1.328c10.723-5.6 9.1-22.863-2.751-26.1-15.962-5.466-27.273 18.233-11.972 26.309a10.964 10.964 0 0 0 -.35 1.25c-5.163 3.968-14.487 2.725-16.723 9.75.352 4.366-5.462 20.903.574 20.973zm19.726-26.328a10.852 10.852 0 0 0 3.142 1.12l-2.161 1.621c-.33-.017-.927.251-.885.664q-.939.707-1.88 1.411a58.461 58.461 0 0 1 -.419-6.537 8.4 8.4 0 0 0 2.203 1.721zm8.225 13.985q-.873-3.62-1.747-7.239.608-1.26 1.214-2.519l2.249 1.687a42.159 42.159 0 0 1 -1.716 8.071zm-1.614-10.566q-.687 1.427-1.373 2.851h-2.14l-1.515-3.145 2.318-1.739zm3.835-5.36a58.691 58.691 0 0 1 -.355 6.464c-1.584-1.2-3.153-2.369-4.746-3.561a10.282 10.282 0 0 0 5.101-2.903zm-10.065 5.968 1.418 2.942q-.847 3.511-1.694 7.021a41.943 41.943 0 0 1 -1.8-8.4zm.595 12.119 2.127-8.816h1.969q1.1 4.542 2.192 9.086a16.379 16.379 0 0 1 -3.033 4.536 16.084 16.084 0 0 1 -3.265-4.791s.008-.01.01-.015zm21.063-15.237c8.613 2.738 5.1 14.98 7.261 21.966.506 3.96-5.082 2.009-7.451 2.411.725-14.34-2.114-14.278-1.448-.011q-7.772-.011-15.541 0v-3.13c5.787-2.373 16.442-14.271 11.143-20.278.769-.557 1.738-1.135 1.907-2.1zm-5.595-.951c-.141.97-2.167 1.251-1.986 2.22 4.893 5.787-3.592 14.657-8.281 18.273 3.353-4.048 4.595-9.706 5.224-14.772.059-.055.083-.111.018-.159a58.014 58.014 0 0 0 .46-8.681c1.328 1.054 4.454 1.193 4.565 3.119zm-22.628-9.758c-13.548-20.25 21.586-32.7 23.583-8.247.336 12.406-16.199 18.264-23.583 8.247zm13.142 5.684a15.061 15.061 0 0 0 3.182-1.046 3.671 3.671 0 0 1 .243 1.1c-2.071 6.153-11.933 5.2-12.347-.967a15.038 15.038 0 0 0 8.922.915zm-13.77 2.372 3.185-1.556a57.827 57.827 0 0 0 .47 9.151c-.08.071-.054.115.016.14.584 4.688 1.7 9.807 4.507 13.746a25.076 25.076 0 0 1 -9.38-14.453c-.291-1.363 2.11-2.706 1.7-3.809-1.587-.862-2.971-2.439-.498-3.217zm-13.983 22.415c1.912-8.948-1.289-20.132 11.106-20.971-.024 1.1 1.124 1.756 1.96 2.354-5.272 5.893 5.243 18.046 11.119 20.178v3.04h-15.541c.724-14.378-2.116-14.266-1.448 0-3.945-.207-9.076 1.515-7.196-4.601z"/><path d="m30.724 24.806v-1.483c7.711-.841 7.887-7.818 0-8.624v-7.286a6.184 6.184 0 0 1 3.8 1.853c3.925-.007-2.289-3.107-3.8-2.645.531-2.9-1.854-2.6-1.448.056-7.711.841-7.887 7.818 0 8.624v7.286a6.184 6.184 0 0 1 -3.8-1.853c-3.925.007 2.289 3.107 3.8 2.645-.138 1.249-.009 3.066 1.448 1.427zm4.53-5.968c.248 2.414-2.467 3.738-4.53 3.792v-6.976c1.72.454 4.269 1.108 4.53 3.184zm-10.508-7.676c-.248-2.414 2.467-3.738 4.53-3.792v6.976c-1.72-.454-4.269-1.108-4.53-3.184z"/></g></svg>