<svg id="Layer_1" enable-background="new 0 0 512 512" height="512" viewBox="0 0 512 512" width="512" xmlns="http://www.w3.org/2000/svg"><g clip-rule="evenodd" fill-rule="evenodd"><path d="m467.13 314.63c.21.88.99 1.51 1.89 1.53l29.98.9v51.4l-29.98.9c-.9.03-1.68.65-1.89 1.53-2.96 12.39-7.85 24.19-14.53 35.04-.47.77-.37 1.76.25 2.42l20.57 21.85-36.35 36.35-21.85-20.57c-.66-.62-1.64-.73-2.41-.25-10.84 6.67-22.64 11.56-35.01 14.52-.88.21-1.51.98-1.53 1.88l-.93 30h-51.41l-.93-30c-.03-.91-.66-1.67-1.54-1.88-12.36-2.96-24.15-7.85-34.98-14.5-.77-.47-1.76-.37-2.42.25l-21.88 20.56-36.35-36.36 20.56-21.87c.62-.66.72-1.65.25-2.41-6.66-10.83-11.55-22.62-14.5-34.99-.21-.88-.98-1.51-1.88-1.54l-30-.93v-51.41l30-.93c.9-.03 1.67-.65 1.88-1.53 2.95-12.36 7.84-24.15 14.5-34.98.47-.77.37-1.76-.24-2.42l-20.56-21.87 36.35-36.35 21.88 20.56c.66.62 1.65.72 2.41.25 10.84-6.66 22.64-11.56 35.02-14.51.88-.21 1.5-.98 1.53-1.88l.9-29.99h51.41l.9 29.99c.03.9.66 1.67 1.54 1.88 12.39 2.96 24.2 7.85 35.04 14.53.77.47 1.75.37 2.41-.25l21.85-20.57 36.35 36.35-20.57 21.84c-.62.66-.72 1.65-.25 2.42 6.66 10.84 11.56 22.65 14.52 35.04zm-379.1-197.46v16h-27.56v-16zm2.59-21c4.69 0 8.5 3.81 8.5 8.5s-3.81 8.5-8.5 8.5h-32.73c-4.69 0-8.5-3.81-8.5-8.5s3.81-8.5 8.5-8.5zm-16.37-19c1.92 0 3.83-.25 5.68-.75l3.94-1.06 4.18 16.81h-27.6l4.18-16.81 3.94 1.06c1.85.49 3.76.75 5.68.75zm17.92-21.92c0 9.88-8.04 17.92-17.92 17.92s-17.92-8.03-17.92-17.92c0-9.88 8.03-17.92 17.92-17.92s17.92 8.03 17.92 17.92zm254.17 0c0-9.88 8.03-17.92 17.92-17.92s17.92 8.04 17.92 17.92-8.04 17.92-17.92 17.92-17.92-8.04-17.92-17.92zm4.11 36.92 4.19-16.81 3.94 1.06c1.85.5 3.76.75 5.68.75s3.83-.25 5.68-.75l3.94-1.06 4.18 16.81zm27.71 25v16h-27.69v-16zm-30.26-4c-4.69 0-8.5-3.81-8.5-8.5s3.81-8.5 8.5-8.5h32.73c4.69 0 8.5 3.81 8.5 8.5s-3.81 8.5-8.5 8.5zm77.61 27.85-46.39 80.36 4.93 1.41c9.42 2.69 18.49 6.48 27.01 11.32l2.57 1.46 11.89-11.2v-83.35zm-49.07-3.85-30.15 52.22h30.98c1.08 0 1.97.85 2 1.94l.61 20.71 43.23-74.87zm-51.3 0-50.7 87.82 11.23 10.56 2.56-1.45c8.82-5 18.23-8.9 28-11.6l2.84-.79.91-30.37c.03-1.08.92-1.94 2-1.94h19.68l30.15-52.22h-46.67zm-51.29 0-53.28 92.27h25.48l14.67-14.67c.77-.77 1.99-.79 2.78-.04l7.93 7.45 49.08-85.01zm-51.29 0-53.27 92.27h46.68l53.27-92.27zm-51.3 0-53.27 92.27h46.68l53.27-92.27zm-51.29 0h46.67l-53.27 92.27h-46.68zm-51.3 0-53.27 92.27h46.68l53.27-92.27zm-55.67 88.43v-88.43h51.05zm183.26 136.5h-26.98l26.98-46.74zm26.3-92.27-25 43.31 31.03-.97.79-2.84c2.71-9.76 6.6-19.16 11.6-27.98l1.45-2.56-8.43-8.97h-11.44zm-51.3 0-53.27 92.27h46.68l53.27-92.27zm-51.29 0h46.67l-53.27 92.27h-46.68zm-59.5-4v-32.39h27.56v32.39zm8.2 4-53.27 92.27h46.68l53.27-92.27zm-55.67 88.43v-88.43h51.05zm77.62 76.26c4.7 0 8.5 3.82 8.5 8.51s-3.81 8.5-8.5 8.5h-32.73c-4.69 0-8.5-3.81-8.5-8.5s3.8-8.51 8.5-8.51zm-2.59-4h-27.56v-64.42h27.56zm261.6-156.4c-37.85 0-68.64 30.8-68.64 68.64s30.8 68.64 68.64 68.64c37.85 0 68.64-30.8 68.64-68.64s-30.79-68.64-68.64-68.64z" fill="#d1e7ff"/><path d="m410.28 342.76c0-33.44-27.21-60.65-60.65-60.65s-60.65 27.21-60.65 60.65 27.21 60.64 60.65 60.64 60.65-27.2 60.65-60.64zm12 0c0 40.06-32.59 72.64-72.64 72.64-40.06 0-72.64-32.59-72.64-72.64 0-40.06 32.59-72.64 72.64-72.64s72.64 32.59 72.64 72.64zm72.72-21.82v43.64l-26.1.79c-2.71.08-5.03 1.97-5.66 4.6-2.86 11.98-7.58 23.38-14.04 33.87-1.42 2.31-1.12 5.29.74 7.26l17.91 19.02-30.86 30.86-19.02-17.91c-1.97-1.86-4.94-2.17-7.25-.75-10.5 6.46-21.88 11.18-33.85 14.04-2.63.63-4.52 2.94-4.6 5.65l-.81 26.12h-43.65l-.81-26.11c-.09-2.71-1.97-5.02-4.61-5.65-11.96-2.86-23.34-7.58-33.82-14.02-2.31-1.42-5.28-1.11-7.25.74l-19.05 17.9-30.87-30.87 17.9-19.04c1.86-1.98 2.16-4.95.74-7.25-6.45-10.5-11.17-21.88-14.02-33.82-.63-2.63-2.95-4.52-5.65-4.61l-26.12-.81v-43.65l26.12-.81c2.7-.08 5.02-1.97 5.65-4.6 2.86-11.96 7.57-23.34 14.01-33.82 1.42-2.31 1.12-5.28-.74-7.25l-17.9-19.05 30.87-30.87 19.05 17.9c1.97 1.86 4.94 2.16 7.25.74 10.5-6.45 21.89-11.17 33.85-14.03 2.63-.63 4.52-2.95 4.6-5.65l.78-26.11h43.64l.78 26.11c.08 2.71 1.97 5.03 4.61 5.65 11.98 2.86 23.38 7.58 33.88 14.04 2.31 1.42 5.28 1.11 7.25-.75l19.02-17.91 30.86 30.86-17.91 19.02c-1.86 1.97-2.16 4.95-.74 7.26 6.46 10.51 11.18 21.91 14.04 33.88.63 2.63 2.95 4.52 5.66 4.6zm-302.73 37.16v-27.81l-16.05 27.81zm-108.24 12h-19.56v56.42h19.56zm11.09 72.94c0-2.49-2.02-4.51-4.5-4.51h-32.73c-2.48 0-4.5 2.02-4.5 4.51 0 2.48 2.02 4.5 4.5 4.5h32.73c2.48-.01 4.5-2.03 4.5-4.5zm-78.12-169.21v69.5l40.12-69.5zm47.47-12h19.56v-24.39h-19.56zm-47.47-120.66v69.5l40.12-69.5zm47.47-12h19.56v-8h-19.56zm3.06-48.89-1.96 7.89h17.37l-1.96-7.89c-2.15.58-4.4.89-6.72.89-2.33 0-4.58-.31-6.73-.89zm-7.2-25.03c0 7.67 6.24 13.92 13.92 13.92s13.92-6.24 13.92-13.92-6.24-13.92-13.92-13.92c-7.67 0-13.92 6.24-13.92 13.92zm30.29 53.92c2.48 0 4.5-2.02 4.5-4.5s-2.02-4.5-4.5-4.5h-32.73c-2.48 0-4.5 2.02-4.5 4.5s2.02 4.5 4.5 4.5zm263.86 20h19.69v-8h-19.69zm3.06-48.89-1.97 7.89h17.37l-1.96-7.89c-2.15.58-4.4.89-6.72.89-2.33 0-4.58-.31-6.72-.89zm-7.2-25.03c0 7.67 6.24 13.92 13.92 13.92s13.92-6.24 13.92-13.92-6.24-13.92-13.92-13.92-13.92 6.24-13.92 13.92zm30.28 53.92c2.48 0 4.5-2.02 4.5-4.5s-2.02-4.5-4.5-4.5h-32.72c-2.48 0-4.5 2.02-4.5 4.5s2.02 4.5 4.5 4.5zm4.52 109.77c9.73 2.78 19.08 6.69 27.89 11.68l8.48-7.99v-66.69zm-31.92-33.55h24.06c3.25 0 5.9 2.58 6 5.82l.2 6.63 32.72-56.67h-37.44zm-95.32 26.55c2.29-2.29 5.99-2.35 8.35-.13l4.25 3.99 43.09-74.64h-37.43l-48.66 84.27h16.9zm-46.89-70.77h-37.44l-48.65 84.27h37.44zm2.64 84.27 48.65-84.27h-37.43l-48.65 84.27zm-140.03 0 48.66-84.27h37.43l-48.65 84.27zm-2.64-84.27h37.44l-48.65 84.27h-37.44zm133.63 167.75 20.91-.65c2.79-10.08 6.81-19.77 11.97-28.88l-5.22-5.56h-7.39zm-79.69 49.18h37.44l48.65-84.27h-37.44zm-51.3 0 48.66-84.27h37.43l-48.65 84.27zm-2.64-84.27h37.44l-48.65 84.27h-37.44zm147.83-22.8 13.59-13.59h-136.37v24.39h124.95l-2.3-2.45c-2.22-2.36-2.16-6.05.13-8.35zm103.18-65.64h17.37l25.53-44.22h-37.44l-47.97 83.08 6.77 6.37c9.12-5.17 18.82-9.19 28.91-11.98l.82-27.42c.11-3.25 2.77-5.83 6.01-5.83zm185.01 129.73v55.29c0 3.25-2.58 5.9-5.82 6l-27.42.82c-2.8 10.1-6.82 19.8-11.99 28.93l18.81 19.98c2.22 2.36 2.17 6.06-.12 8.36l-39.1 39.09c-2.29 2.29-5.99 2.35-8.35.12l-19.98-18.81c-9.13 5.17-18.82 9.19-28.91 11.99l-.85 27.43c-.1 3.24-2.76 5.82-6 5.82h-55.29c-3.24 0-5.9-2.58-5.99-5.82l-.85-27.43c-10.09-2.8-19.77-6.81-28.88-11.97l-20.01 18.8c-2.36 2.22-6.06 2.16-8.35-.13l-39.09-39.09c-2.29-2.3-2.35-5.99-.13-8.36l18.8-20c-5.16-9.12-9.17-18.8-11.97-28.88l-27.43-.85c-3.24-.1-5.81-2.76-5.81-6v-.3h-96.24v57.36c6.45 2.24 11.09 8.37 11.09 15.57 0 9.1-7.4 16.5-16.5 16.5h-32.73c-9.1 0-16.5-7.4-16.5-16.5 0-7.2 4.64-13.33 11.08-15.57v-57.37h-41.47c-3.31 0-6-2.68-6-6v-96.27c0-3.31 2.69-6 6-6h41.47v-24.39h-41.47c-3.31 0-6-2.69-6-6v-96.27c0-3.31 2.69-6 6-6h41.47v-8.94c-6.44-2.25-11.08-8.37-11.08-15.57 0-7.4 4.9-13.68 11.63-15.77l3.65-14.64c-5.12-4.74-8.33-11.51-8.33-19.01 0-14.3 11.63-25.92 25.92-25.92s25.92 11.62 25.92 25.92c0 7.51-3.21 14.28-8.33 19.01l3.65 14.64c6.73 2.09 11.63 8.36 11.63 15.77 0 7.2-4.64 13.32-11.09 15.57v8.94h246.45v-8.94c-6.45-2.25-11.09-8.37-11.09-15.57 0-7.4 4.9-13.68 11.63-15.77l3.65-14.64c-5.12-4.74-8.33-11.51-8.33-19.01 0-14.3 11.62-25.92 25.92-25.92 14.29 0 25.92 11.62 25.92 25.92 0 7.51-3.21 14.28-8.33 19.01l3.65 14.64c6.73 2.09 11.64 8.36 11.64 15.77 0 7.15-4.59 13.24-10.96 15.53v8.98h41.34c3.32 0 6 2.69 6 6v76.25c2.36-1.79 5.71-1.62 7.85.52l39.1 39.09c2.29 2.29 2.34 5.99.12 8.35l-18.81 19.98c5.17 9.13 9.19 18.83 11.99 28.93l27.42.82c3.22.11 5.8 2.77 5.8 6.01zm-106.82-246.38-3.34-1.93c-2.87-1.66-6.54-.67-8.2 2.2s-.67 6.54 2.2 8.2l3.34 1.93c.95.55 1.98.81 3 .81 2.07 0 4.09-1.08 5.2-3 1.66-2.88.67-6.55-2.2-8.21zm-1.85-19.49c-3.31 0-6 2.69-6 6s2.69 6 6 6h3.86c3.31 0 6-2.69 6-6s-2.69-6-6-6zm-9.69-7.76c1.11 1.93 3.13 3 5.2 3 1.02 0 2.05-.26 3-.81l3.34-1.93c2.87-1.66 3.86-5.33 2.2-8.19-1.66-2.87-5.33-3.86-8.2-2.2l-3.34 1.93c-2.87 1.66-3.85 5.33-2.2 8.2zm-10.07-10.07c.95.54 1.98.81 3 .81 2.07 0 4.09-1.08 5.2-3l1.93-3.34c1.66-2.87.68-6.54-2.2-8.19-2.87-1.66-6.54-.68-8.2 2.2l-1.93 3.34c-1.65 2.85-.67 6.52 2.2 8.18zm-49.13 37.32c-2.87 1.66-3.85 5.33-2.2 8.19 1.11 1.93 3.13 3 5.2 3 1.02 0 2.05-.26 2.99-.81l3.35-1.93c2.87-1.66 3.85-5.33 2.2-8.2-1.66-2.87-5.33-3.85-8.2-2.2zm-2.01-7.49h3.86c3.31 0 6-2.69 6-6s-2.69-6-6-6h-3.86c-3.31 0-6 2.69-6 6s2.69 6 6 6zm2.01-19.5 3.35 1.93c.94.55 1.97.81 2.99.81 2.07 0 4.09-1.08 5.2-3 1.66-2.87.67-6.54-2.2-8.19l-3.34-1.93c-2.87-1.66-6.54-.67-8.2 2.2-1.65 2.86-.67 6.53 2.2 8.18zm13.41-12.53c1.11 1.93 3.13 3 5.2 3 1.02 0 2.05-.26 3-.81 2.87-1.66 3.85-5.32 2.2-8.19l-1.93-3.34c-1.66-2.87-5.33-3.85-8.19-2.2-2.87 1.66-3.86 5.33-2.2 8.19zm21.96-1.49c3.32 0 6-2.69 6-6v-3.86c0-3.32-2.68-6-6-6-3.31 0-6 2.69-6 6v3.86c0 3.31 2.69 6 6 6zm-255.18 41.01-3.35-1.93c-2.86-1.66-6.54-.67-8.19 2.2-1.66 2.87-.67 6.54 2.2 8.2l3.34 1.93c.95.55 1.98.81 3 .81 2.07 0 4.09-1.08 5.2-3 1.65-2.88.67-6.55-2.2-8.21zm-1.86-19.49c-3.31 0-6 2.69-6 6s2.69 6 6 6h3.86c3.31 0 6-2.69 6-6s-2.69-6-6-6zm-9.69-7.76c1.11 1.93 3.13 3 5.2 3 1.02 0 2.05-.26 3-.81l3.34-1.93c2.87-1.66 3.85-5.33 2.19-8.19-1.66-2.87-5.32-3.86-8.19-2.2l-3.34 1.93c-2.87 1.66-3.85 5.33-2.2 8.2zm-10.07-10.07c.95.54 1.97.81 3 .81 2.07 0 4.09-1.08 5.2-3l1.93-3.34c1.66-2.87.68-6.54-2.2-8.19-2.87-1.66-6.54-.68-8.19 2.2l-1.93 3.34c-1.66 2.85-.67 6.52 2.19 8.18zm-49.13 37.32c-2.87 1.66-3.86 5.33-2.2 8.19 1.11 1.93 3.13 3 5.2 3 1.02 0 2.05-.26 3-.81l3.34-1.93c2.87-1.66 3.85-5.33 2.2-8.2-1.66-2.87-5.33-3.85-8.2-2.2zm-2.01-7.49h3.86c3.31 0 6-2.69 6-6s-2.68-6-6-6h-3.86c-3.31 0-6 2.69-6 6s2.69 6 6 6zm2.01-19.5 3.34 1.93c.94.55 1.97.81 3 .81 2.07 0 4.09-1.08 5.2-3 1.66-2.87.67-6.54-2.2-8.19l-3.34-1.93c-2.87-1.66-6.54-.67-8.19 2.2-1.66 2.86-.68 6.53 2.19 8.18zm13.42-12.53c1.11 1.93 3.13 3 5.2 3 1.02 0 2.05-.26 3-.81 2.87-1.66 3.86-5.32 2.2-8.19l-1.93-3.34c-1.66-2.87-5.33-3.85-8.2-2.2-2.87 1.66-3.85 5.33-2.19 8.19zm15.96-7.49v-3.86c0-3.32 2.68-6 6-6 3.31 0 6 2.69 6 6v3.86c0 3.31-2.68 6-6 6s-6-2.69-6-6z" fill="#2e58ff"/></g></svg>